<?xml version="1.0" encoding="UTF-8"?>
<svg width="200px" height="140px" viewBox="0 0 200 140" version="1.1" xmlns="http://www.w3.org/2000/svg" xmlns:xlink="http://www.w3.org/1999/xlink">
    <!-- Generator: Sketch 39.1 (31720) - http://www.bohemiancoding.com/sketch -->
    <title>Artboard</title>
    <desc>Created with Sketch.</desc>
    <defs></defs>
    <g id="Page-1" stroke="none" stroke-width="1" fill="none" fill-rule="evenodd">
        <g id="Artboard">
            <g id="EBay_logo" transform="translate(25.000000, 39.000000)">
                <g id="Group">
                    <path d="M19.5627788,13.2629013 C8.91942856,13.2629013 0.0503318082,17.7855119 0.0503318082,31.4300216 C0.0503318082,42.2394772 6.01415736,49.046623 19.8376018,49.046623 C36.1084433,49.046623 37.1514632,38.3115062 37.1514632,38.3115062 L29.2674728,38.3115062 C29.2674728,38.3115062 27.5770792,44.091954 19.3566613,44.091954 C12.6613555,44.091954 7.84582913,39.5618999 7.84582913,33.21237 L37.9759327,33.21237 L37.9759327,29.2279463 C37.9759327,22.9462651 33.9945308,13.2629013 19.5627788,13.2629013 L19.5627788,13.2629013 Z M19.2879553,18.3552 C25.6611932,18.3552 30.0060601,22.2657774 30.0060601,28.1269084 L8.02020444,28.1269084 C8.02020444,21.9046009 13.6913628,18.3552 19.2879553,18.3552 L19.2879553,18.3552 Z" id="e" fill="#E53238"></path>
                    <path d="M37.9703402,0.0504499189 L37.9703402,42.1944038 C37.9703402,44.5866282 37.7998728,47.9455856 37.7998728,47.9455856 L45.3195384,47.9455856 C45.3195384,47.9455856 45.5894449,45.5331349 45.5894449,43.3283897 C45.5894449,43.3283897 49.3046453,49.1498451 59.4065509,49.1498451 C70.0442643,49.1498451 77.2700572,41.7527058 77.2700572,31.1547619 C77.2700572,21.2956475 70.6329328,13.3661234 59.4237246,13.3661234 C48.927093,13.3661234 45.6653898,19.0433485 45.6653898,19.0433485 L45.6653898,0.0504499189 L37.9703402,0.0504499189 Z M57.4827857,18.5788481 C64.7066207,18.5788481 69.3001866,23.9486938 69.3001866,31.1547619 C69.3001866,38.8819621 63.9947714,43.9371203 57.534317,43.9371203 C49.8243305,43.9371203 45.6653898,37.9076404 45.6653898,31.223577 C45.6653898,24.9953323 49.3973291,18.5788481 57.4827857,18.5788481 L57.4827857,18.5788481 Z" id="b" fill="#0064D2"></path>
                    <path d="M95.9580337,13.2629013 C79.9459182,13.2629013 78.9189974,22.0442677 78.9189974,23.4474991 L86.888868,23.4474991 C86.888868,23.4474991 87.3068058,18.3207924 95.4083886,18.3207924 C100.672928,18.3207924 104.752379,20.7342806 104.752379,25.3743147 L104.752379,27.025871 L95.4083886,27.025871 C83.0035776,27.025871 76.4455872,30.6605283 76.4455872,38.036247 C76.4455872,45.2950136 82.5049605,49.2444657 90.6934539,49.2444657 C101.853099,49.2444657 105.448021,43.0683331 105.448021,43.0683331 C105.448021,45.5248606 105.637114,47.9455856 105.637114,47.9455856 L112.72225,47.9455856 C112.72225,47.9455856 112.447425,44.9450213 112.447425,43.0253236 L112.447425,26.432343 C112.447425,15.5525529 103.685645,13.2629013 95.9580337,13.2629013 L95.9580337,13.2629013 Z M104.752379,31.9805401 L104.752379,34.1826154 C104.752379,37.0547217 102.982896,44.195176 92.5656878,44.195176 C86.8612601,44.195176 84.4154628,41.3437255 84.4154628,38.036247 C84.4154628,32.0192912 92.6518987,31.9805401 104.752379,31.9805401 L104.752379,31.9805401 Z" id="a" fill="#F5AF02"></path>
                    <polygon id="y" fill="#86B817" points="108.155768 14.6405853 117.121877 14.6405853 129.989488 40.4608997 142.827659 14.6405853 150.949667 14.6405853 127.565157 60.6088892 119.045637 60.6088892 125.79353 47.7945975"></polygon>
                </g>
            </g>
        </g>
    </g>
</svg>