<?xml version="1.0" encoding="UTF-8"?>
<svg width="200px" height="140px" viewBox="0 0 200 140" version="1.1" xmlns="http://www.w3.org/2000/svg" xmlns:xlink="http://www.w3.org/1999/xlink">
    <!-- Generator: Sketch 39.1 (31720) - http://www.bohemiancoding.com/sketch -->
    <title>Artboard</title>
    <desc>Created with Sketch.</desc>
    <defs></defs>
    <g id="Page-1" stroke="none" stroke-width="1" fill="none" fill-rule="evenodd">
        <g id="Artboard" fill="#00478C">
            <g id="EMC_Corporation_logo" transform="translate(32.000000, 45.000000)">
                <g id="svg3826">
                    <g id="layer1" transform="translate(0.367235, 0.416299)">
                        <path d="M0.917119763,8.21880348 L34.1071002,8.32649043 L34.1071002,18.1282296 C34.2152254,18.7682296 33.3790671,18.6569252 33.2536642,18.0238817 C32.9331903,16.4238817 30.1638775,12.58736 29.6274041,12.26736 L15.7494894,12.26736 L15.7494894,24.2047513 L27.380631,24.2047513 C28.2375505,23.8847513 29.5995368,21.5438817 30.4808401,19.1925774 C30.7978307,18.3438817 31.4492566,18.8760557 31.4387785,19.0915687 C31.2264297,22.9246122 31.2785416,29.9506991 31.3342762,32.8341774 C31.3509965,33.90896 30.7978307,34.2220035 30.4808401,33.2620035 C30.1638496,32.3054817 28.5579965,29.0011339 27.4921002,28.1454817 L15.7495173,28.1454817 L15.7495173,41.7872209 L30.7978585,41.7872209 C31.6512945,41.1506991 33.8562945,36.3333078 34.1071002,35.0741774 C34.2152254,34.5420035 35.068522,34.5420035 35.068522,34.9664904 L35.068522,46.2638817 L11.4823372,45.9438817 C6.68219502,45.9438817 5.50480166,45.9438817 0.91714763,46.3717078 C0.164730569,46.441273 0.18214763,45.3386643 0.701176066,45.0917078 C5.92977796,42.6430122 6.57420924,44.0238817 6.57420924,36.5664904 L6.57420924,16.2117078 C6.57420924,10.6708383 4.97877853,10.8864904 0.701176066,9.28301217 C0.255299289,9.11605565 0.492171327,8.32649043 0.91714763,8.21866435" id="path3089"></path>
                        <path d="M42.2199397,8.0031513 L57.6932572,8.32662957 L69.5403425,32.6222817 L81.8158875,8.64662957 L92.2766026,8.64662957 C93.1300386,8.64662957 96.4427637,8.32662957 96.9722145,8.21880348 C97.50866,8.11111652 97.6131624,9.17880348 97.1845634,9.39097739 C96.7561036,9.60329043 91.6320041,11.7353252 91.1025533,12.4831513 L94.1958235,42.1074991 C94.6242832,43.0674991 99.8389514,45.26576 100.702838,45.411847 C101.347269,45.5195339 101.148714,46.2848904 100.810963,46.2640209 C97.5086879,46.0517078 82.5787827,46.0517078 79.3601097,46.2640209 C79.0396358,46.2834991 77.6915273,45.759673 79.1474822,45.3040209 C80.8543821,44.7753252 84.2715818,43.599673 85.017032,42.319673 L82.8817002,16.531847 L68.1538329,46.2640209 L65.7015107,46.2640209 L52.2520557,17.171847 L49.9042636,42.1074991 C50.8656576,44.0240209 55.3488371,44.879673 55.8817713,45.091847 C56.4112779,45.30416 56.4112779,46.0970643 55.9862737,46.051847 C52.7850178,45.731847 40.8264633,45.94416 39.5549899,46.1595339 C38.9105865,46.2638817 37.7505823,45.453447 39.2310604,44.9838817 C43.4111552,43.6656209 44.7836197,44.8795339 45.7415581,35.1821426 L48.3053495,13.86736 C48.62234,10.3508383 44.1496386,9.92301217 42.1153258,9.17866435 C41.812269,9.06736 41.4708945,8.00301217 42.2198282,8.00301217" id="path3091"></path>
                        <path d="M131.475441,17.8083687 L131.795915,8.0031513 C127.413783,7.47445565 116.615205,5.70054261 107.673285,12.2674991 C98.4004415,19.0814122 95.8680007,36.5040209 107.889257,44.3474991 C115.890655,49.5683687 130.51402,45.9440209 131.583427,45.411847 C132.008404,45.1998122 132.541366,44.879673 132.541366,44.451847 C132.541366,44.0240209 132.649212,35.2866296 132.649212,34.8622817 C132.649212,34.4379339 132.008292,34.5422817 131.687818,34.9666296 C131.370828,35.3944557 129.73014,41.6414122 128.166088,42.4274991 C124.724477,44.1631513 116.541941,45.2622817 112.264311,36.5666296 C109.449714,30.8414122 109.366112,23.0814122 113.434738,15.999673 C117.670567,8.63619478 125.60578,10.7474991 126.567202,11.3109774 C128.378576,12.3753252 129.493268,14.7370643 130.30142,17.7074991 C130.621894,18.8761948 131.370828,18.6640209 131.47533,17.8082296" id="path3101"></path>
                        <path d="M134.467665,2.99793391 C138.94385,-1.15858783 142.897523,0.333586087 144.280437,1.71793391 C145.670347,3.10228174 146.582973,6.13880348 143.325982,9.39097739 C141.720129,10.9909774 138.410888,13.5474991 138.410888,13.5474991 L143.534987,13.5474991 C144.067977,13.4395339 145.005015,11.6135861 145.349873,11.0953252 C145.565844,10.7788035 145.774821,10.8830122 145.774821,11.3109774 L145.774821,16.7440209 C144.280437,16.6363339 135.425603,16.6363339 134.039205,16.6363339 L134.039205,14.8276383 C136.383542,13.0154643 138.626859,10.4589426 140.333731,8.3267687 C142.040603,6.19459478 141.76193,0.511116522 135.746077,3.85024696 C134.784683,4.38242087 134.143707,3.85024696 134.467665,2.99807304" id="path3103"></path>
                    </g>
                </g>
            </g>
        </g>
    </g>
</svg>