<?xml version="1.0" encoding="UTF-8"?>
<svg width="200px" height="140px" viewBox="0 0 200 140" version="1.1" xmlns="http://www.w3.org/2000/svg" xmlns:xlink="http://www.w3.org/1999/xlink">
    <!-- Generator: Sketch 39.1 (31720) - http://www.bohemiancoding.com/sketch -->
    <title>Artboard</title>
    <desc>Created with Sketch.</desc>
    <defs></defs>
    <g id="Page-1" stroke="none" stroke-width="1" fill="none" fill-rule="evenodd">
        <g id="Artboard">
            <g id="Facebook" transform="translate(23.000000, 37.000000)">
                <g id="Group">
                    <rect id="Rectangle-path" fill="#3B5998" x="0" y="0" width="154" height="58"></rect>
                    <g transform="translate(16.210526, 16.240000)" id="Shape" fill="#FFFFFF">
                        <path d="M64.8539782,12.5260742 C63.8210321,12.5260742 63.0764289,12.8653515 62.3216489,13.2111426 L62.3216489,21.0329296 C63.0447677,21.1020312 63.45919,21.1020312 64.1455592,21.1020312 C66.624743,21.1020312 66.9645353,19.9646874 66.9645353,18.3764843 L66.9645353,14.6404687 C66.9645353,13.4680078 66.5761205,12.5260742 64.8539782,12.5260742 L64.8539782,12.5260742 Z M48.3898797,12.0992871 C46.669999,12.0992871 46.277061,13.0454687 46.277061,14.2167968 L46.277061,14.8749609 L50.5001542,14.8749609 L50.5001542,14.2167968 C50.5001542,13.0454687 50.1077817,12.0992871 48.3898797,12.0992871 L48.3898797,12.0992871 Z M16.4957597,20.2410938 C16.4957597,21.1677343 16.9322317,21.6491797 17.8956363,21.6491797 C18.9291478,21.6491797 19.5408872,21.3116016 20.2951018,20.964961 L20.2951018,19.109414 L18.0352848,19.109414 C16.9658717,19.109414 16.4957597,19.308789 16.4957597,20.2410938 L16.4957597,20.2410938 Z M80.869449,12.5260742 C79.1467414,12.5260742 78.5497019,13.4680078 78.5497019,14.6404687 L78.5497019,18.9202343 C78.5497019,20.0960937 79.1467414,21.0408593 80.869449,21.0408593 C82.5876336,21.0408593 83.1891961,20.0960937 83.1891961,18.9202343 L83.1891961,14.6404687 C83.1891961,13.4680078 82.5876336,12.5260742 80.869449,12.5260742 L80.869449,12.5260742 Z M8.05268298,25.0396875 L2.98830695,25.0396875 L2.98830695,12.758584 L0.457391058,12.758584 L0.457391058,8.5266797 L2.98830695,8.5266797 L2.98830695,5.98578125 C2.98830695,2.53325196 4.41673523,0.4803125 8.47615132,0.4803125 L11.8559827,0.4803125 L11.8559827,4.71306643 L9.74344673,4.71306643 C8.1629317,4.71306643 8.05890209,5.30439452 8.05890209,6.40832036 L8.05268293,8.52667976 L11.8797286,8.52667976 L11.431949,12.758584 L8.05268293,12.758584 L8.05268293,25.0396875 L8.05268298,25.0396875 Z M25.3614566,25.0714062 L21.140625,25.0714062 L20.9577251,24.0020312 C19.0303505,25.0714062 17.3101871,25.2447265 16.1754728,25.2447265 C13.0800267,25.2447265 11.431949,23.1728125 11.431949,20.3079296 C11.431949,16.9276171 13.3545179,15.7211718 16.7942794,15.7211718 L20.2951017,15.7211718 L20.2951017,14.9905078 C20.2951017,13.2655176 20.0977847,12.758584 17.4492701,12.758584 L13.1187552,12.758584 L13.5422235,8.5266797 L18.2758532,8.5266797 C24.0873766,8.5266797 25.3614566,10.3658008 25.3614566,15.0244922 L25.3614566,25.0714062 L25.3614566,25.0714062 Z M39.7152806,13.0689746 C37.0885331,12.6181152 36.3343184,12.5189941 35.0704153,12.5189941 C32.8001388,12.5189941 32.1140522,13.0208301 32.1140522,14.9519921 L32.1140522,18.6053124 C32.1140522,20.5367577 32.8001388,21.0408593 35.0704153,21.0408593 C36.3343185,21.0408593 37.0885331,20.940039 39.7152806,20.486914 L39.7152806,24.6148828 C37.4144737,25.1314453 35.9156558,25.2673828 34.6486431,25.2673828 C29.2111174,25.2673828 27.0496762,22.4025 27.0496762,18.2643359 L27.0496762,15.2997656 C27.0496762,11.1579199 29.2111174,8.28822262 34.6486431,8.28822262 C35.9156559,8.28822262 37.4144737,8.42472655 39.7152806,8.94355464 L39.7152806,13.0689746 L39.7152806,13.0689746 Z M55.5645302,18.264336 L46.2770611,18.264336 L46.2770611,18.6053125 C46.2770611,20.5367578 46.963713,21.0408594 49.2334241,21.0408594 C51.2738744,21.0408594 52.5191201,20.9400391 55.1410619,20.4869141 L55.1410619,24.6148829 C52.6124075,25.1314454 51.2947934,25.2673829 48.8136308,25.2673829 C43.3758224,25.2673829 41.2132504,22.4025001 41.2132504,18.264336 L41.2132504,14.874961 C41.2132504,11.254209 42.817794,8.28822268 48.3898798,8.28822268 C53.9619655,8.28822268 55.5645302,11.2196582 55.5645302,14.874961 L55.5645302,18.264336 L55.5645302,18.264336 Z M72.0280633,18.3425 C72.0280633,22.342461 70.88713,25.2594531 63.9742496,25.2594531 C61.4781045,25.2594531 60.0137747,25.0396875 57.2586863,24.6148828 L57.2586863,1.75104494 L62.3216489,0.904550774 L62.3216489,8.90220702 C63.4156558,8.49496095 64.8319285,8.28822262 66.120991,8.28822262 C71.184519,8.28822262 72.0280633,10.5623437 72.0280633,14.2167968 L72.0280633,18.3425 L72.0280633,18.3425 Z M88.2578125,18.4297265 C88.2578125,21.8802735 86.8358861,25.2266015 80.8864103,25.2266015 C74.9341077,25.2266015 73.4856086,21.8802735 73.4856086,18.4297265 L73.4856086,15.098125 C73.4856086,11.6458789 74.9341077,8.2989844 80.8864103,8.2989844 C86.8358861,8.2989844 88.2578125,11.6458789 88.2578125,15.098125 L88.2578125,18.4297265 L88.2578125,18.4297265 Z M104.476254,18.4297265 C104.476254,21.8802735 103.052632,25.2266015 97.1042866,25.2266015 C91.151984,25.2266015 89.7034848,21.8802735 89.7034848,18.4297265 L89.7034848,15.098125 C89.7034848,11.6458789 91.151984,8.2989844 97.1042866,8.2989844 C103.052632,8.2989844 104.476254,11.6458789 104.476254,15.098125 L104.476254,18.4297265 L104.476254,18.4297265 Z M121.120426,25.0396875 L115.632299,25.0396875 L110.991108,17.2776563 L110.991108,25.0396875 L105.926449,25.0396875 L105.926449,1.75104494 L110.991108,0.904550774 L110.991108,15.8967578 L115.632299,8.5266797 L121.120426,8.5266797 L116.053505,16.5696485 L121.120426,25.0396875 L121.120426,25.0396875 Z M97.0873253,12.5260742 C95.3674445,12.5260742 94.7704051,13.4680078 94.7704051,14.6404687 L94.7704051,18.9202343 C94.7704051,20.0960937 95.3674445,21.0408593 97.0873253,21.0408593 C98.8049445,21.0408593 99.4127262,20.0960937 99.4127262,18.9202343 L99.4127262,14.6404687 C99.4127261,13.4680078 98.8049445,12.5260742 97.0873253,12.5260742 L97.0873253,12.5260742 Z"></path>
                        <path d="M124.011205,22.143086 C124.863795,22.143086 125.54338,22.8397657 125.54338,23.7097657 C125.54338,24.5933594 124.863795,25.2821094 124.004986,25.2821094 C123.150699,25.2821094 122.457545,24.5933594 122.457545,23.7097657 C122.457545,22.8397657 123.150699,22.143086 124.004986,22.143086 L124.011205,22.143086 L124.011205,22.143086 Z M124.004986,22.3866406 C123.318051,22.3866406 122.7555,22.9791015 122.7555,23.7097656 C122.7555,24.4540234 123.318051,25.0385546 124.011205,25.0385546 C124.704924,25.0453515 125.258995,24.4540234 125.258995,23.7165624 C125.258995,22.9791015 124.704924,22.3866405 124.011205,22.3866405 L124.004986,22.3866405 L124.004986,22.3866406 Z M123.71325,24.6216797 L123.435084,24.6216797 L123.435084,22.87375 C123.580952,22.8533594 123.720035,22.8329688 123.928094,22.8329688 C124.192126,22.8329688 124.364566,22.8884765 124.470292,22.964375 C124.572625,23.0414063 124.628032,23.1592188 124.628032,23.3257422 C124.628032,23.556836 124.476511,23.6950391 124.289371,23.7516797 L124.289371,23.7652735 C124.441458,23.7935938 124.545487,23.9317969 124.580541,24.1889454 C124.621248,24.4608204 124.663086,24.5650391 124.690789,24.6216798 L124.39962,24.6216798 C124.358347,24.5650392 124.316509,24.4053126 124.281456,24.1753517 C124.240748,23.9533204 124.128803,23.8694923 123.906044,23.8694923 L123.71325,23.8694923 L123.71325,24.6216797 L123.71325,24.6216797 Z M123.71325,23.6542578 L123.914525,23.6542578 C124.142372,23.6542578 124.336297,23.5704297 124.336297,23.3540625 C124.336297,23.2011328 124.226048,23.0482031 123.914525,23.0482031 C123.823499,23.0482031 123.760742,23.055 123.71325,23.0617968 L123.71325,23.6542578 L123.71325,23.6542578 Z"></path>
                    </g>
                </g>
            </g>
        </g>
    </g>
</svg>