<?xml version="1.0" encoding="UTF-8"?>
<svg width="200px" height="140px" viewBox="0 0 200 140" version="1.1" xmlns="http://www.w3.org/2000/svg" xmlns:xlink="http://www.w3.org/1999/xlink">
    <!-- Generator: Sketch 39.1 (31720) - http://www.bohemiancoding.com/sketch -->
    <title>Artboard</title>
    <desc>Created with Sketch.</desc>
    <defs>
        <polygon id="path-1" points="54.3669 0.839 0.8169 0.839 0.8169 25.4836 54.3669 25.4836 54.3669 0.839"></polygon>
        <polygon id="path-3" points="3.379 3.1309 3.379 0.1669 0.4722 0.1669 0.4722 3.1309 3.379 3.1309"></polygon>
    </defs>
    <g id="Page-1" stroke="none" stroke-width="1" fill="none" fill-rule="evenodd">
        <g id="Artboard">
            <g id="keybank" transform="translate(17.000000, 55.000000)">
                <g id="Group-3" transform="translate(110.000000, 0.161100)">
                    <mask id="mask-2" fill="white">
                        <use xlink:href="#path-1"></use>
                    </mask>
                    <g id="Clip-2"></g>
                    <path d="M17.8589,15.7656 C17.3049,15.7656 16.7459,15.6146 16.3049,15.2846 L15.4709,16.0866 C15.7709,16.5106 15.9769,16.9616 15.9769,17.4836 C15.9769,18.8756 14.8429,20.0126 13.4469,20.0126 C12.7719,20.0126 12.1349,19.7476 11.6569,19.2696 C11.1789,18.7926 10.9149,18.1586 10.9149,17.4836 C10.9149,17.0376 11.0369,16.5266 11.3719,16.0866 L10.5459,15.2846 C10.0319,15.5906 9.5479,15.7656 9.0729,15.7656 C8.3959,15.7656 7.7599,15.5396 7.2809,15.0656 C6.8039,14.5866 6.5389,13.9126 6.5389,13.2396 C6.5389,12.5656 6.8039,11.9306 7.2809,11.4526 C7.7599,10.9746 8.3959,10.7126 9.0729,10.7126 C9.6489,10.7126 10.1899,10.9846 10.5459,11.2486 L11.3719,10.4286 C11.1119,10.0776 10.9149,9.4856 10.9149,8.9076 C10.9149,8.2346 11.1789,7.5986 11.6569,7.1216 C12.1349,6.6436 12.7719,6.3826 13.4469,6.3826 C14.1219,6.3826 14.7759,6.6436 15.2539,7.1216 C15.7309,7.5986 15.9769,8.2346 15.9769,8.9076 C15.9769,9.4216 15.8159,9.8956 15.4709,10.4286 L16.3049,11.2486 C16.7949,10.8286 17.3269,10.7126 17.8589,10.7126 C18.5329,10.7126 19.1699,10.9746 19.6489,11.4526 C20.1259,11.9306 20.3889,12.5656 20.3889,13.2396 C20.3889,14.6336 19.2549,15.7656 17.8589,15.7656 M51.7059,10.1426 L25.2949,10.1426 C24.9199,9.3866 24.2669,8.6066 23.6379,8.0836 C22.5169,7.1586 21.1789,6.8186 19.9169,7.0556 L19.6859,7.1036 L19.7119,6.8596 C19.8889,5.4946 19.4339,4.2156 18.4479,3.0926 C17.2299,1.7096 15.3069,0.8386 13.4459,0.8386 C11.6149,0.8386 9.6899,1.6966 8.4469,3.0926 C7.4969,4.1606 7.0599,5.6196 7.2049,6.8596 L7.2349,7.1036 L6.9989,7.0556 C5.7979,6.7826 4.3259,7.1746 3.1859,8.0836 C1.6339,9.3206 0.8169,11.2356 0.8169,13.1586 C0.8169,15.0786 1.6429,16.9956 3.1939,18.2296 C4.3349,19.1406 5.8059,19.5316 7.0059,19.2586 L7.2419,19.2086 L7.2139,19.4556 C7.0659,20.6966 7.5079,22.1556 8.4539,23.2186 C9.6989,24.6166 11.6249,25.4736 13.4519,25.4736 C15.3179,25.4736 17.2389,24.6046 18.4569,23.2186 C19.4429,22.0986 19.8979,20.8216 19.7199,19.4556 L19.6899,19.2086 L19.9279,19.2586 C21.1869,19.4946 22.5259,19.1586 23.6459,18.2296 C24.4849,17.5366 25.0539,16.4826 25.4689,15.4646 L38.9569,15.4646 C39.7669,15.4646 40.4149,16.0336 40.4149,16.8436 C40.4149,17.6496 39.7669,18.2786 38.9569,18.2786 L37.7299,18.2786 L37.7299,25.4836 L43.0939,25.4836 L43.0939,19.7076 C43.0939,18.8996 43.7469,18.2786 44.5529,18.2786 C45.3609,18.2786 46.1269,18.8996 46.1269,19.7076 L46.1269,25.4836 L51.4369,25.4836 L51.4369,18.2786 L50.2529,18.2666 C49.4439,18.2666 48.7899,17.6556 48.7899,16.8466 C48.7899,16.0366 49.4439,15.4646 50.2529,15.4646 L51.7059,15.4646 C53.1759,15.4646 54.3669,14.2886 54.3669,12.8196 C54.3669,11.3526 53.1759,10.1426 51.7059,10.1426" id="Fill-1" fill="#EE3523" mask="url(#mask-2)"></path>
                </g>
                <path d="M19.896,19.9863 C19.974,21.8303 21.039,23.0493 22.908,23.0493 C23.971,23.0493 25.01,22.5553 25.426,21.5713 L29.551,21.5713 C28.746,24.6843 25.865,26.0333 22.855,26.0333 C18.469,26.0333 15.484,23.3873 15.484,18.8703 C15.484,14.7433 18.781,11.7853 22.751,11.7853 C27.579,11.7853 29.992,15.4193 29.783,19.9863 L19.896,19.9863 Z M25.373,17.5203 C25.295,16.0143 24.233,14.7693 22.751,14.7693 C21.195,14.7693 20.155,15.8853 19.896,17.5203 L25.373,17.5203 Z" id="Fill-4" fill="#221F20"></path>
                <path d="M38.2461,26.8379 C37.1811,29.7959 35.5991,30.1609 32.6131,30.1609 L30.5381,30.1609 L30.5381,26.5799 L32.0691,26.5799 C33.0801,26.5799 33.8331,26.0079 33.8331,25.0739 C33.8331,24.3479 32.9751,22.2719 32.7171,21.5439 L29.2401,12.1739 L33.9101,12.1739 L36.4531,20.9479 L36.5051,20.9479 L39.0481,12.1739 L43.5661,12.1739 L38.2461,26.8379 Z" id="Fill-6" fill="#221F20"></path>
                <path d="M61.8496,16.3476 C61.9266,14.5846 62.7576,13.4426 63.9516,12.7426 C65.1456,12.0656 66.7026,11.8056 68.2336,11.8056 C71.4256,11.8056 74.5146,12.5076 74.5146,16.3226 L74.5146,22.2136 C74.5146,23.3566 74.5146,24.6026 75.0316,25.6676 L70.5946,25.6676 C70.4386,25.2516 70.3866,24.8356 70.3356,24.3956 C69.1946,25.5876 67.5086,26.0566 65.8976,26.0566 C63.3306,26.0566 61.3046,24.7586 61.3046,21.9826 C61.3046,17.5936 66.0796,17.9316 69.1426,17.3096 C69.8966,17.1546 70.3106,16.8936 70.3106,16.0626 C70.3106,15.0516 69.0896,14.6616 68.1806,14.6616 C66.9616,14.6616 66.1846,15.2066 65.9756,16.3476 L61.8496,16.3476 Z M67.5596,23.3306 C69.6626,23.3306 70.3626,22.1376 70.2586,19.3616 C69.6356,19.7486 68.4936,19.8266 67.5306,20.0856 C66.5466,20.3206 65.7146,20.7366 65.7146,21.8006 C65.7146,22.8886 66.5726,23.3306 67.5596,23.3306 L67.5596,23.3306 Z" id="Fill-8" fill="#221F20"></path>
                <path d="M76.8813,12.1963 L81.1633,12.1963 L81.1633,14.0403 L81.2143,14.0403 C82.0203,12.6613 83.8363,11.8063 85.4453,11.8063 C89.9353,11.8063 90.2993,15.0793 90.2993,17.0233 L90.2993,25.6673 L85.8863,25.6673 L85.8863,19.1513 C85.8863,17.3093 86.0943,15.4403 83.6793,15.4403 C82.0203,15.4403 81.2933,16.8413 81.2933,18.3223 L81.2933,25.6673 L76.8813,25.6673 L76.8813,12.1963 Z" id="Fill-10" fill="#221F20"></path>
                <polygon id="Fill-12" fill="#221F20" points="11.1299 25.6445 16.5219 25.6445 10.1329 14.0645 16.4809 7.1125 11.3469 7.1125 4.8279 14.4385 4.8279 7.1125 -0.0001 7.1125 -0.0001 25.6445 4.8279 25.6445 4.8279 19.8745 6.9649 17.5335"></polygon>
                <polygon id="Fill-15" fill="#221F20" points="106.1587 25.667 101.3367 16.928 105.9907 12.196 100.8777 12.196 96.8557 16.688 96.8557 7.135 92.4447 7.135 92.4447 25.667 96.8557 25.667 96.8557 21.358 98.2277 20.008 101.1157 25.667"></polygon>
                <path d="M49.2275,10.8496 L52.8875,10.8496 C53.9005,10.8496 54.8625,11.2926 54.8625,12.6396 C54.8625,13.9636 53.7195,14.4066 52.8875,14.4066 L49.2275,14.4066 L49.2275,10.8496 Z M44.3985,25.6446 L53.2235,25.6446 C57.1965,25.6446 60.4405,24.2946 60.4405,19.8836 C60.4405,17.7806 59.2205,16.0666 57.2505,15.4966 C58.7025,14.7686 59.6885,13.4196 59.6885,11.7566 C59.6885,7.8916 56.1835,7.0606 52.9935,7.1116 L44.3985,7.1116 L44.3985,25.6446 Z M49.2275,17.5206 L53.0175,17.5206 C54.4715,17.5206 55.6145,18.0656 55.6145,19.7026 C55.6145,21.2306 54.5495,21.7766 53.0175,21.7766 L49.2275,21.7766 L49.2275,17.5206 Z" id="Fill-17" fill="#221F20"></path>
                <g id="Group-21" transform="translate(163.000000, 23.161100)">
                    <mask id="mask-4" fill="white">
                        <use xlink:href="#path-3"></use>
                    </mask>
                    <g id="Clip-20"></g>
                    <path d="M1.9302,3.1309 C1.0792,3.1309 0.4722,2.4929 0.4722,1.6499 C0.4722,0.7579 1.1452,0.1669 1.9302,0.1669 C2.7082,0.1669 3.3792,0.7579 3.3792,1.6499 C3.3792,2.5389 2.7082,3.1309 1.9302,3.1309 L1.9302,3.1309 Z M1.9302,0.4239 C1.2892,0.4239 0.7892,0.9299 0.7892,1.6499 C0.7892,2.3229 1.2262,2.8739 1.9302,2.8739 C2.5632,2.8739 3.0632,2.3749 3.0632,1.6499 C3.0632,0.9299 2.5632,0.4239 1.9302,0.4239 L1.9302,0.4239 Z M1.6362,2.4979 L1.3672,2.4979 L1.3672,0.8569 L1.9882,0.8569 C2.3862,0.8569 2.5862,0.9949 2.5862,1.3269 C2.5862,1.6259 2.4052,1.7469 2.1582,1.7769 L2.6182,2.4979 L2.3142,2.4979 L1.8892,1.7959 L1.6362,1.7959 L1.6362,2.4979 Z M1.9382,1.5669 C2.1402,1.5669 2.3172,1.5459 2.3172,1.3079 C2.3172,1.1109 2.1242,1.0869 1.9612,1.0869 L1.6362,1.0869 L1.6362,1.5669 L1.9382,1.5669 Z" id="Fill-19" fill="#EE3523" mask="url(#mask-4)"></path>
                </g>
            </g>
        </g>
    </g>
</svg>