<?xml version="1.0" encoding="UTF-8"?>
<svg width="200px" height="140px" viewBox="0 0 200 140" version="1.1" xmlns="http://www.w3.org/2000/svg" xmlns:xlink="http://www.w3.org/1999/xlink">
    <!-- Generator: Sketch 39.1 (31720) - http://www.bohemiancoding.com/sketch -->
    <title>Artboard</title>
    <desc>Created with Sketch.</desc>
    <defs></defs>
    <g id="Page-1" stroke="none" stroke-width="1" fill="none" fill-rule="evenodd">
        <g id="Artboard" fill="#000000">
            <g id="Apple_logo_black" transform="translate(66.000000, 25.000000)">
                <path d="M66.2113043,62.8490854 C65.004058,65.6445732 63.5750725,68.2178049 61.9194203,70.5835976 C59.6626087,73.8087805 57.8147826,76.0412195 56.3907246,77.2809146 C54.1831884,79.3157927 51.817971,80.3579268 49.2852174,80.4171951 C47.4669565,80.4171951 45.2742029,79.8985976 42.7217391,78.8465854 C40.1608986,77.7995122 37.8075072,77.2809146 35.6556522,77.2809146 C33.3988406,77.2809146 30.9784348,77.7995122 28.3895072,78.8465854 C25.7966377,79.8985976 23.7078551,80.4468293 22.1108406,80.5011585 C19.682058,80.604878 17.2611594,79.5331098 14.8446957,77.2809146 C13.3023768,75.932561 11.3732464,73.6210976 9.06223188,70.3465244 C6.58269565,66.8496951 4.54417391,62.7947561 2.94715942,58.1718293 C1.23681159,53.1784756 0.37942029,48.3431707 0.37942029,43.6619634 C0.37942029,38.2996646 1.53542029,33.6747622 3.85086957,29.7991098 C5.6706087,26.6860427 8.09150725,24.2303598 11.1214493,22.4276159 C14.1513913,20.624872 17.4252464,19.7062134 20.9508986,19.647439 C22.880029,19.647439 25.4098261,20.2455549 28.5535942,21.4210427 C31.6884928,22.6004817 33.7013913,23.1985976 34.583913,23.1985976 C35.2437101,23.1985976 37.4798261,22.4992317 41.2705797,21.1049451 C44.8553623,19.8119085 47.8808696,19.2765183 50.3594203,19.4874146 C57.0756522,20.0307073 62.1214493,22.6844451 65.4771014,27.4654207 C59.4704348,31.1133841 56.4991304,36.2228049 56.5582609,42.7773841 C56.6124638,47.8828537 58.4602899,52.1314024 62.0918841,55.5047561 C63.7376812,57.0704268 65.5756522,58.2804878 67.6205797,59.139878 C67.1771014,60.4289634 66.7089855,61.6637195 66.2113043,62.8490854 L66.2113043,62.8490854 Z M50.8078261,2.09414634 C50.8078261,6.09579329 49.3492754,9.83211585 46.442029,13.2904207 C42.9336232,17.4016646 38.690029,19.7773354 34.0882029,19.4024634 C34.0295652,18.9223902 33.9955652,18.417128 33.9955652,17.8861829 C33.9955652,14.0446098 35.664029,9.93336585 38.6269565,6.57186585 C40.1062029,4.86987805 41.9875362,3.45469939 44.2689855,2.32578659 C46.5455072,1.21371585 48.6988406,0.598708537 50.724058,0.493408537 C50.7831884,1.02835427 50.8078261,1.56334939 50.8078261,2.09409695 L50.8078261,2.09414634 Z" id="Shape"></path>
            </g>
        </g>
    </g>
</svg>