<?xml version="1.0" encoding="UTF-8"?>
<svg width="200px" height="140px" viewBox="0 0 200 140" version="1.1" xmlns="http://www.w3.org/2000/svg" xmlns:xlink="http://www.w3.org/1999/xlink">
    <!-- Generator: Sketch 39.1 (31720) - http://www.bohemiancoding.com/sketch -->
    <title>Artboard</title>
    <desc>Created with Sketch.</desc>
    <defs></defs>
    <g id="Page-1" stroke="none" stroke-width="1" fill="none" fill-rule="evenodd">
        <g id="Artboard" fill="#000000">
            <g id="L'OreÌal_logo" transform="translate(18.000000, 55.000000)">
                <g id="Layer_1">
                    <polyline id="polyline3" points="89.7659812 27.9328966 111.058406 27.9328966 111.058406 25.323931 93.4161937 25.323931 93.4161937 16.9756552 106.66755 16.9756552 106.66755 14.3358621 93.4161937 14.3358621 93.4161937 6.64448276 111.058406 6.64448276 111.058406 4.04503448 89.7659812 4.04503448 89.7659812 27.9328966"></polyline>
                    <polyline id="polyline5" points="100.831088 0.183517241 97.9483313 3.4322069 106.997963 0.183517241 100.831088 0.183517241"></polyline>
                    <polyline id="polyline7" points="146.803181 25.323931 146.803181 4.04503448 143.475131 4.04503448 143.475131 27.9328966 165 27.9328966 165 25.323931 146.803181 25.323931"></polyline>
                    <path d="M124.855294,4.04503448 L112.746975,27.9328966 L116.8398,27.9328966 L119.937469,21.75 L134.459531,21.75 L137.5836,27.9328966 L141.634144,27.9328966 L129.516131,4.04503448 L124.855294,4.04503448 L124.855294,4.04503448 Z M121.470113,18.7557931 L127.175813,7.34586207 L132.948338,18.7557931 L121.470113,18.7557931 L121.470113,18.7557931 Z" id="path9"></path>
                    <path d="M78.2120625,17.9441379 C83.6675813,16.4838621 84.1976438,12.411931 84.1700063,10.9562069 C83.8443375,6.68875862 80.9780813,4.04503448 75.8278125,4.04503448 L60.819,4.04503448 L60.819,27.9328966 L64.2404813,27.9328966 L64.2404813,17.9122759 L74.011575,17.9122759 L81.2000063,27.9328966 L85.5124875,27.9328966 C85.5122813,27.9328966 80.339325,21.1888966 78.2120625,17.9441379 L78.2120625,17.9441379 Z M75.3606563,15.0897931 L64.2404813,15.0897931 L64.2404813,6.87248276 L75.7482,6.87248276 C78.3976875,6.87248276 79.88805,8.11324138 80.4249188,9.68937931 C80.7800813,10.7697931 80.5523813,12.188069 79.964775,13.1536552 C79.0030313,14.750069 77.1760688,15.0897931 75.3606563,15.0897931 L75.3606563,15.0897931 Z" id="path11"></path>
                    <path d="M40.257525,0 C30.59925,0 24.0163687,6.83110345 24.0163687,15.0991034 C24.0163687,23.8032414 31.288125,29.9478621 40.257525,29.9478621 C49.2209437,29.9478621 56.4898125,23.8909655 56.4898125,15.0991034 C56.4898125,6.83110345 49.8254625,0 40.257525,0 L40.257525,0 Z M40.1416125,26.9826207 C33.459525,26.9826207 27.9538875,21.596069 27.9538875,15.1071724 C27.9538875,8.62717241 33.19965,2.98262069 40.4006625,2.98262069 C47.4232687,2.98262069 52.5855,8.62717241 52.5855,15.1071724 C52.5855,21.5958621 46.8208125,26.9826207 40.1416125,26.9826207 L40.1416125,26.9826207 Z" id="path13"></path>
                    <polyline id="polyline15" points="15.3992437 12.4957241 17.8680562 12.4957241 22.34925 4.04503448 18.743175 4.04503448 15.3992437 12.4957241"></polyline>
                    <polyline id="polyline17" points="3.32990625 25.323931 3.32990625 4.04503448 0 4.04503448 0 27.9328966 21.5240438 27.9328966 21.5240438 25.323931 3.32990625 25.323931"></polyline>
                </g>
            </g>
        </g>
    </g>
</svg>