<?xml version="1.0" encoding="UTF-8"?>
<svg width="200px" height="140px" viewBox="0 0 200 140" version="1.1" xmlns="http://www.w3.org/2000/svg" xmlns:xlink="http://www.w3.org/1999/xlink">
    <!-- Generator: Sketch 39.1 (31720) - http://www.bohemiancoding.com/sketch -->
    <title>Artboard</title>
    <desc>Created with Sketch.</desc>
    <defs></defs>
    <g id="Page-1" stroke="none" stroke-width="1" fill="none" fill-rule="evenodd">
        <g id="Artboard">
            <g id="PayPal" transform="translate(25.000000, 51.000000)">
                <g id="Layer_1">
                    <path d="M56.2730726,8.27296774 L47.9449355,8.27296774 C47.3750323,8.27296774 46.890371,8.68974194 46.8014758,9.25606452 L43.4332016,30.7530323 C43.3662258,31.1771613 43.6925806,31.5596129 44.1200081,31.5596129 L48.0959355,31.5596129 C48.6658387,31.5596129 49.1505,31.1428387 49.2393952,30.5752903 L50.1478306,24.7772258 C50.2355081,24.2096774 50.7213871,23.7929032 51.2900726,23.7929032 L53.9264839,23.7929032 C59.4124113,23.7929032 62.5785403,21.1206452 63.4053871,15.8251613 C63.7780161,13.5083871 63.4212177,11.6880645 62.3435161,10.4132258 C61.159871,9.01335484 59.0604839,8.27296774 56.2730726,8.27296774 L56.2730726,8.27296774 Z M57.233871,16.1242581 C56.7784355,19.1323871 54.4951694,19.1323871 52.2874032,19.1323871 L51.0306935,19.1323871 L51.9123387,13.5145161 C51.9647016,13.1749677 52.2569597,12.9249032 52.5979274,12.9249032 L53.1739194,12.9249032 C54.6778306,12.9249032 56.0965,12.9249032 56.8295806,13.787871 C57.26675,14.3027097 57.4007016,15.0676129 57.233871,16.1242581 L57.233871,16.1242581 Z" id="Shape" fill="#253B80"></path>
                    <path d="M81.167371,16.0274194 L77.1792661,16.0274194 C76.8395161,16.0274194 76.5460403,16.2774839 76.4936774,16.6170323 L76.3171048,17.739871 L76.0382419,17.3329032 C75.1748629,16.0715484 73.2496129,15.649871 71.3280161,15.649871 C66.9210081,15.649871 63.1569677,19.0098065 62.4238871,23.7230323 C62.0427339,26.074129 62.584629,28.3222581 63.9095323,29.8900645 C65.1248387,31.3316129 66.8637742,31.9322581 68.9327177,31.9322581 C72.4836532,31.9322581 74.4527419,29.633871 74.4527419,29.633871 L74.2749516,30.7493548 C74.2079758,31.1759355 74.5343306,31.5583871 74.9593226,31.5583871 L78.5516613,31.5583871 C79.1227823,31.5583871 79.6050081,31.1416129 79.695121,30.5740645 L81.8505242,16.834 C81.9187177,16.4110968 81.5935806,16.0274194 81.167371,16.0274194 L81.167371,16.0274194 Z M75.608379,23.8407097 C75.2235726,26.1341935 73.4152258,27.6738065 71.1088226,27.6738065 C69.95075,27.6738065 69.0252661,27.2999355 68.4310081,26.5914194 C67.841621,25.8878065 67.6175565,24.8863226 67.8050887,23.7708387 C68.1643226,21.4969677 70.0031129,19.9070968 72.2742016,19.9070968 C73.4067016,19.9070968 74.3273145,20.285871 74.93375,21.0005161 C75.5414032,21.7225161 75.7825161,22.730129 75.608379,23.8407097 L75.608379,23.8407097 Z" id="Shape" fill="#253B80"></path>
                    <path d="M102.407226,16.0274194 L98.3996371,16.0274194 C98.0172661,16.0274194 97.6580323,16.2186452 97.4412742,16.5385806 L91.9139435,24.7343226 L89.5710081,16.8585161 C89.4236613,16.3657419 88.971879,16.0274194 88.4604274,16.0274194 L84.52225,16.0274194 C84.0436774,16.0274194 83.7112339,16.498129 83.8634516,16.9516774 L88.2777661,29.9918065 L84.1277016,35.8891613 C83.8013468,36.3537419 84.1301371,36.9923871 84.6939516,36.9923871 L88.6966694,36.9923871 C89.0766048,36.9923871 89.4321855,36.8060645 89.6477258,36.4922581 L102.977129,17.1245161 C103.296177,16.6611613 102.968605,16.0274194 102.407226,16.0274194 L102.407226,16.0274194 Z" id="Shape" fill="#253B80"></path>
                    <path d="M115.675742,8.27296774 L107.346387,8.27296774 C106.777702,8.27296774 106.29304,8.68974194 106.204145,9.25606452 L102.835871,30.7530323 C102.768895,31.1771613 103.09525,31.5596129 103.520242,31.5596129 L107.794516,31.5596129 C108.1915,31.5596129 108.53125,31.267871 108.593355,30.8707097 L109.549282,24.7772258 C109.63696,24.2096774 110.122839,23.7929032 110.691524,23.7929032 L113.326718,23.7929032 C118.813863,23.7929032 121.978774,21.1206452 122.806839,15.8251613 C123.180685,13.5083871 122.821452,11.6880645 121.74375,10.4132258 C120.561323,9.01335484 118.463153,8.27296774 115.675742,8.27296774 L115.675742,8.27296774 Z M116.63654,16.1242581 C116.182323,19.1323871 113.899056,19.1323871 111.690073,19.1323871 L110.434581,19.1323871 L111.317444,13.5145161 C111.369806,13.1749677 111.659629,12.9249032 112.001815,12.9249032 L112.577806,12.9249032 C114.0805,12.9249032 115.500387,12.9249032 116.233468,13.787871 C116.670637,14.3027097 116.803371,15.0676129 116.63654,16.1242581 L116.63654,16.1242581 Z" id="Shape" fill="#179BD7"></path>
                    <path d="M140.568823,16.0274194 L136.583153,16.0274194 C136.240968,16.0274194 135.949927,16.2774839 135.898782,16.6170323 L135.72221,17.739871 L135.442129,17.3329032 C134.57875,16.0715484 132.654718,15.649871 130.733121,15.649871 C126.326113,15.649871 122.56329,19.0098065 121.83021,23.7230323 C121.450274,26.074129 121.989734,28.3222581 123.314637,29.8900645 C124.532379,31.3316129 126.268879,31.9322581 128.337823,31.9322581 C131.888758,31.9322581 133.857847,29.633871 133.857847,29.633871 L133.680056,30.7493548 C133.613081,31.1759355 133.939435,31.5583871 134.366863,31.5583871 L137.957984,31.5583871 C138.526669,31.5583871 139.011331,31.1416129 139.100226,30.5740645 L141.256847,16.834 C141.322605,16.4110968 140.99625,16.0274194 140.568823,16.0274194 L140.568823,16.0274194 Z M135.009831,23.8407097 C134.62746,26.1341935 132.816677,27.6738065 130.510274,27.6738065 C129.354637,27.6738065 128.426718,27.2999355 127.83246,26.5914194 C127.243073,25.8878065 127.021444,24.8863226 127.20654,23.7708387 C127.56821,21.4969677 129.404565,19.9070968 131.675653,19.9070968 C132.808153,19.9070968 133.728766,20.285871 134.335202,21.0005161 C134.94529,21.7225161 135.186403,22.730129 135.009831,23.8407097 L135.009831,23.8407097 Z" id="Shape" fill="#179BD7"></path>
                    <path d="M145.270524,8.86258065 L141.852323,30.7530323 C141.785347,31.1771613 142.111702,31.5596129 142.536694,31.5596129 L145.973161,31.5596129 C146.544282,31.5596129 147.028944,31.1428387 147.116621,30.5752903 L150.487331,9.07954839 C150.554306,8.65541935 150.227952,8.27174194 149.80296,8.27174194 L145.954895,8.27174194 C145.615145,8.27296774 145.322887,8.52303226 145.270524,8.86258065 L145.270524,8.86258065 Z" id="Shape" fill="#179BD7"></path>
                    <path d="M8.8481129,35.7371613 L9.48499194,31.6650323 L8.06632258,31.6319355 L1.29202419,31.6319355 L5.99981452,1.58374194 C6.01442742,1.49303226 6.06191935,1.40845161 6.13133065,1.3483871 C6.20074194,1.28832258 6.2896371,1.25522581 6.38218548,1.25522581 L17.8046048,1.25522581 C21.5966532,1.25522581 24.2135806,2.04954839 25.5798871,3.61735484 C26.2204194,4.35283871 26.6283629,5.12141935 26.8256371,5.96722581 C27.0326532,6.85470968 27.0363065,7.91503226 26.8341613,9.20825806 L26.8195484,9.30264516 L26.8195484,10.1312903 L27.4600806,10.4965806 C27.9995403,10.7846452 28.4281855,11.1143871 28.7569758,11.4919355 C29.3049597,12.1207742 29.6593226,12.92 29.8091048,13.8675484 C29.9637581,14.8420645 29.9126129,16.0016774 29.6593226,17.3145161 C29.3670645,18.8247097 28.8945806,20.14 28.2564839,21.2162581 C27.6695323,22.2079355 26.9218387,23.0304516 26.0341048,23.667871 C25.1865565,24.2734194 24.1794839,24.7330968 23.0408952,25.0272903 C21.937621,25.3165806 20.6796935,25.4624516 19.2999919,25.4624516 L18.4110403,25.4624516 C17.775379,25.4624516 17.1579839,25.6929032 16.6733226,26.106 C16.1874435,26.5276774 15.8659597,27.1038065 15.7673226,27.733871 L15.7003468,28.1003871 L14.5751532,35.2774839 L14.5240081,35.5410323 C14.5106129,35.6243871 14.4874758,35.6660645 14.453379,35.6942581 C14.4229355,35.72 14.3790968,35.7371613 14.3364758,35.7371613 L8.8481129,35.7371613 L8.8481129,35.7371613 Z" id="Shape" fill="#253B80"></path>
                    <path d="M28.0665161,9.39825806 L28.0665161,9.39825806 L28.0665161,9.39825806 C28.0324194,9.61767742 27.9934516,9.842 27.9496129,10.0724516 C26.4432661,17.8575484 21.2897823,20.5469677 14.7078871,20.5469677 L11.3566613,20.5469677 C10.5517339,20.5469677 9.87345161,21.1353548 9.74802419,21.9345806 L9.74802419,21.9345806 L9.74802419,21.9345806 L8.03222581,32.8883871 L7.54634677,35.9933548 C7.46475806,36.518 7.8666129,36.9911613 8.39267742,36.9911613 L14.3364758,36.9911613 C15.0403306,36.9911613 15.6382419,36.4763226 15.7490565,35.7776129 L15.8075081,35.4736129 L16.9266129,28.3247097 L16.9984597,27.9324516 C17.1080565,27.2312903 17.7071855,26.7164516 18.4110403,26.7164516 L19.2999919,26.7164516 C25.0586935,26.7164516 29.5667742,24.3629032 30.884371,17.5523226 C31.4347903,14.7072258 31.1498387,12.3316129 29.6934194,10.6608387 C29.2525968,10.1570323 28.7058306,9.73903226 28.0665161,9.39825806 L28.0665161,9.39825806 Z" id="Shape" fill="#179BD7"></path>
                    <path d="M26.4907581,8.76574194 C26.2606048,8.69832258 26.0231452,8.63703226 25.7795968,8.58187097 C25.5348306,8.52793548 25.2839758,8.48012903 25.0258145,8.43845161 C24.12225,8.29135484 23.1322258,8.22148387 22.0715726,8.22148387 L13.1187339,8.22148387 C12.8983226,8.22148387 12.688871,8.27174194 12.5013387,8.36245161 C12.0885242,8.56225806 11.7816532,8.95574194 11.707371,9.43748387 L9.80282258,21.5803226 L9.74802419,21.9345806 C9.87345161,21.1353548 10.5517339,20.5469677 11.3566613,20.5469677 L14.7078871,20.5469677 C21.2897823,20.5469677 26.4432661,17.8563226 27.9496129,10.0724516 C27.9946694,9.842 28.0324194,9.61767742 28.0665161,9.39825806 C27.6853629,9.19477419 27.2725484,9.02070968 26.8280726,8.8723871 C26.7184758,8.8356129 26.6052258,8.80006452 26.4907581,8.76574194 L26.4907581,8.76574194 Z" id="Shape" fill="#222D65"></path>
                    <path d="M11.707371,9.43748387 C11.7816532,8.95574194 12.0885242,8.56225806 12.5013387,8.36367742 C12.6900887,8.27296774 12.8983226,8.22270968 13.1187339,8.22270968 L22.0715726,8.22270968 C23.1322258,8.22270968 24.12225,8.29258065 25.0258145,8.43967742 C25.2839758,8.48135484 25.5348306,8.52916129 25.7795968,8.58309677 C26.0231452,8.63825806 26.2606048,8.69954839 26.4907581,8.76696774 C26.6052258,8.80129032 26.7184758,8.83683871 26.8292903,8.8723871 C27.2737661,9.02070968 27.6865806,9.196 28.0677339,9.39825806 C28.5158629,6.52129032 28.0640806,4.56245161 26.5187661,2.78870968 C24.8151452,0.836 21.7403468,0 17.8058226,0 L6.38340323,0 C5.57969355,0 4.89410484,0.588387097 4.76989516,1.38883871 L0.0121774194,31.7459355 C-0.0815887097,32.3465806 0.378717742,32.8883871 0.980282258,32.8883871 L8.03222581,32.8883871 L9.80282258,21.5803226 L11.707371,9.43748387 L11.707371,9.43748387 Z" id="Shape" fill="#253B80"></path>
                </g>
            </g>
        </g>
    </g>
</svg>