<?xml version="1.0" encoding="UTF-8"?>
<svg width="200px" height="140px" viewBox="0 0 200 140" version="1.1" xmlns="http://www.w3.org/2000/svg" xmlns:xlink="http://www.w3.org/1999/xlink">
    <!-- Generator: Sketch 39.1 (31720) - http://www.bohemiancoding.com/sketch -->
    <title>Artboard</title>
    <desc>Created with Sketch.</desc>
    <defs></defs>
    <g id="Page-1" stroke="none" stroke-width="1" fill="none" fill-rule="evenodd">
        <g id="Artboard">
            <g id="Sesame_Street_logo" transform="translate(22.000000, 34.000000)">
                <g id="svg6995">
                    <g id="layer1" transform="translate(0.048018, 0.080458)">
                        <path d="M56.6753459,18.2492268 L6.49876969,18.2492268 C3.00060643,18.2492268 0.15837375,21.1205039 0.15837375,24.6134093 L0.15837375,51.4614014 C0.15837375,54.9839121 3.00060643,57.825605 6.49876969,57.825605 L149.704322,57.825605 C153.202464,57.825605 156.044697,54.9839121 156.044697,51.4614014 L156.044697,24.6134093 C156.044697,21.1205039 153.202464,18.2492268 149.704322,18.2492268 L99.6370011,18.2492268 C97.7786328,8.00731143 88.5959831,0.311098571 78.2108537,0.311098571 C67.8257242,0.311098571 58.5337353,8.00731143 56.6753459,18.2492268" id="path594" fill="#231F20"></path>
                        <path d="M0.704965045,51.4614014 L0.704965045,24.6134093 C0.704965045,21.4461207 3.32856121,18.8708339 6.49876969,18.8708339 L57.2219372,18.8413339 L57.2219372,18.6045332 C58.9710293,8.51062357 67.9350214,0.903205714 78.2108537,0.903205714 C88.3773466,0.903205714 97.3413597,8.51062357 99.0904098,18.6045332 L99.1997491,18.8413339 L149.704301,18.8708339 C152.874489,18.8708339 155.388787,21.4461207 155.388787,24.6134093 L155.388787,51.4614014 C155.388787,54.6582954 152.874489,57.2335821 149.704301,57.2335821 L6.49876969,57.2335821 C3.32856121,57.2335821 0.704965045,54.6582954 0.704965045,51.4614014" id="path596" fill="#FEE303"></path>
                        <path d="M61.1573525,17.4500086 C61.1573525,18.5748436 62.0318985,18.8116443 62.3598533,18.8116443 L93.9525147,18.8116443 C94.2804695,18.8116443 95.1550156,18.5748225 95.1550156,17.5091982 L95.1550156,17.4796982 L95.1550156,17.4501982 C93.7338992,9.84278036 86.3003207,3.89300964 78.2108537,3.89300964 C70.0120473,3.89300964 62.5784898,9.84278036 61.1573525,17.4501982" id="path598" fill="#231F20"></path>
                        <path d="M62.3598533,18.2196214 C62.1411747,18.2196214 61.7039438,18.1604107 61.7039438,17.5091982 C63.1250811,10.2273761 70.3400021,4.48482179 78.2108537,4.48482179 C85.9723659,4.48482179 93.1873079,10.1977918 94.6084243,17.5091982 C94.6084243,18.1604107 94.061833,18.2196214 93.9525147,18.2196214" id="path600" fill="#00A770"></path>
                        <path d="M6.93604272,21.8309271 C5.07763232,21.8309271 3.65651598,23.2813789 3.65651598,25.0574264 L3.65651598,51.0174054 C3.65651598,52.8230582 5.07763232,54.2734889 6.93604272,54.2734889 L149.157731,54.2734889 C151.016099,54.2734889 152.437237,52.8230582 152.437237,51.0174054 L152.437237,25.0574264 C152.437237,23.2813789 151.016099,21.8309271 149.157731,21.8309271" id="path602" fill="#231F20"></path>
                        <path d="M4.31242554,51.0174054 L4.31242554,25.0574264 C4.31242554,23.6069746 5.4055871,22.3933446 6.93604272,22.3933446 L149.157731,22.3933446 C150.688165,22.3933446 151.890645,23.6069746 151.890645,25.0574264 L151.890645,51.0174054 C151.890645,52.4974414 150.688144,53.6814871 149.157731,53.6814871 L6.93604272,53.6814871 C5.4055871,53.6814871 4.31242554,52.4974414 4.31242554,51.0174054" id="path604" fill="#00A770"></path>
                        <path d="M14.0416454,49.4189479 C10.871437,49.4189479 9.45032062,47.1988832 9.12238688,43.4691771 L12.5112108,42.8771543 C12.7298894,45.5412361 13.2764387,46.1924486 14.0416454,46.1924486 C14.9161705,46.1924486 15.2441463,45.6300311 15.2441463,44.2091846 C15.2441463,42.1075414 14.5882367,41.1307121 12.6205291,38.9402318 C10.434185,36.6609775 9.34100237,34.5889186 9.34100237,32.0432371 C9.34100237,28.9647436 10.871437,26.6558839 13.82303,26.6558839 C16.8838992,26.6558839 18.1956972,28.7575271 18.523673,31.9840264 L15.2441463,32.6944496 C15.0254677,30.5039904 14.5882367,29.8527779 13.82303,29.8527779 C13.0578021,29.8527779 12.7298474,30.38559 12.7298474,31.7768311 C12.7298474,33.3160779 13.2764387,34.2336964 15.0255098,36.09856 C17.5397877,38.6738257 18.7422885,40.8938904 18.7422885,43.9131943 C18.7422885,47.1396725 16.9931964,49.4189479 14.0416454,49.4189479" id="path606" fill="#FFFFFF"></path>
                        <polyline id="path608" fill="#FFFFFF" points="20.6006989 49.0637468 20.6006989 27.011085 28.9087815 27.011085 28.9087815 30.2967739 24.2081384 30.2967739 24.2081384 35.8025486 27.8155989 35.8025486 27.8155989 39.0882375 24.2081384 39.0882375 24.2081384 45.8076421 29.127418 45.8076421 29.127418 49.0637468"></polyline>
                        <path d="M35.2491774,49.4189479 C32.0789689,49.4189479 30.6578526,47.1988832 30.3299188,43.4691771 L33.7187428,42.8771543 C33.9374214,45.5412361 34.4839706,46.1924486 35.2491774,46.1924486 C36.1237025,46.1924486 36.4516783,45.6300311 36.4516783,44.2091846 C36.4516783,42.1075414 35.7957687,41.1307121 33.8280611,38.9402318 C31.6417169,36.6609775 30.5485343,34.5889186 30.5485343,32.0432371 C30.5485343,28.9647436 31.9696507,26.6558839 35.0305619,26.6558839 C38.0914311,26.6558839 39.4032292,28.7575271 39.731205,31.9840264 L36.4516783,32.6944496 C36.2329997,30.5039904 35.7957687,29.8527779 35.0305619,29.8527779 C34.2653341,29.8527779 33.9373793,30.38559 33.9373793,31.7768311 C33.9373793,33.3160779 34.4839706,34.2336964 36.1237025,36.09856 C38.7473196,38.6738257 39.9498205,40.8938904 39.9498205,43.9131943 C39.9498205,47.1396725 38.2007283,49.4189479 35.2491774,49.4189479" id="path610" fill="#FFFFFF"></path>
                        <path d="M51.5374508,49.0637468 L48.1486058,27.011085 L44.3225088,27.011085 L40.8243455,49.0637468 L44.3225088,49.0637468 L44.8691001,44.2092057 L47.4927173,44.2092057 L48.0393086,49.0637468 L51.5374508,49.0637468 L51.5374508,49.0637468 Z M47.1647625,41.0418961 L45.1970549,41.0418961 L45.6343069,37.0457839 C45.8529854,35.4473264 46.0715799,33.6416736 46.0715799,31.8952314 C46.1809192,33.6416736 46.3995347,35.4177421 46.6181712,37.0161786 L47.1647625,41.0418961 Z" id="path612" fill="#FFFFFF"></path>
                        <path d="M62.5784898,49.0637468 L62.5784898,43.2915661 C62.5784898,40.6274843 62.5784898,38.0818029 62.6878291,35.8025486 C62.3598743,37.5489907 61.7039858,40.8050954 61.1573945,43.0547654 L59.5176417,49.7445646 L57.987186,43.0547654 C57.4406158,40.9234957 56.7847062,37.4898011 56.4567514,35.8025486 C56.4567514,37.8746075 56.5660907,40.7163004 56.5660907,43.2915661 L56.5660907,49.0637468 L53.5052215,49.0637468 L53.5052215,27.011085 L56.8940455,27.011085 L58.4244801,33.7304896 C58.8617531,35.7137325 59.4083234,38.2594139 59.5176627,40.0650668 C59.7363412,38.2594139 60.2828905,35.6841482 60.7201425,33.7008843 L62.2505981,27.011085 L65.6394221,27.011085 L65.6394221,49.0637468" id="path614" fill="#FFFFFF"></path>
                        <polyline id="path616" fill="#FFFFFF" points="68.590931 49.0637468 68.590931 27.011085 76.7897163 27.011085 76.7897163 30.2967739 72.0890732 30.2967739 72.0890732 35.8025486 75.6965337 35.8025486 75.6965337 39.0882375 72.0890732 39.0882375 72.0890732 45.8076421 77.1176711 45.8076421 77.1176711 49.0637468"></polyline>
                        <path d="M89.0332562,49.4189479 C85.8630477,49.4189479 84.4419313,47.1988832 84.1139766,43.4691771 L87.5028216,42.8771543 C87.7215001,45.5412361 88.2680283,46.1924486 89.0332562,46.1924486 C89.9077812,46.1924486 90.235757,45.6300311 90.235757,44.2091846 C90.235757,42.1075414 89.5798475,41.1307121 87.6121398,38.9402318 C85.4257957,36.6609775 84.3326131,34.5889186 84.3326131,32.0432371 C84.3326131,28.9647436 85.8630477,26.6558839 88.8145986,26.6558839 C91.8754888,26.6558839 93.1873079,28.7575271 93.5152417,31.9840264 L90.235757,32.6944496 C90.0170784,30.5039904 89.5798475,29.8527779 88.8145986,29.8527779 C88.0493918,29.8527779 87.7214371,30.38559 87.7214371,31.7768311 C87.7214371,33.3160779 88.2680283,34.2336964 89.9077812,36.09856 C92.5313984,38.6738257 93.7338992,40.8938904 93.7338992,43.9131943 C93.7338992,47.1396725 91.9848071,49.4189479 89.0332562,49.4189479" id="path618" fill="#FFFFFF"></path>
                        <polyline id="path620" fill="#FFFFFF" points="100.839502 30.2967739 100.839502 49.0637468 97.2320415 49.0637468 97.2320415 30.2967739 94.2804695 30.2967739 94.2804695 27.011085 103.791053 27.011085 103.791053 30.2967739"></polyline>
                        <path d="M115.269365,49.0637468 L113.083042,38.34823 C114.285522,37.3714007 115.050749,35.6545429 115.050749,33.0792561 C115.050749,28.4911211 112.864405,27.011085 110.13147,27.011085 L105.540145,27.011085 L105.540145,49.0637468 L109.038287,49.0637468 L109.038287,39.3546436 L109.912833,39.3546436 L111.661925,49.0637468 L115.269365,49.0637468 L115.269365,49.0637468 Z M111.552607,33.2568671 C111.552607,35.5953321 110.896698,36.4833664 109.694197,36.4833664 L109.038287,36.4833664 L109.038287,30.0007625 L109.803515,30.0007625 C111.006016,30.0007625 111.552607,30.8296071 111.552607,33.2568671 L111.552607,33.2568671 Z" id="path622" fill="#FFFFFF"></path>
                        <polyline id="path624" fill="#FFFFFF" points="117.565048 49.0637468 117.565048 27.011085 125.873152 27.011085 125.873152 30.2967739 121.172509 30.2967739 121.172509 35.8025486 124.779969 35.8025486 124.779969 39.0882375 121.172509 39.0882375 121.172509 45.8076421 126.091788 45.8076421 126.091788 49.0637468"></polyline>
                        <polyline id="path626" fill="#FFFFFF" points="128.38743 49.0637468 128.38743 27.011085 136.695554 27.011085 136.695554 30.2967739 131.885572 30.2967739 131.885572 35.8025486 135.493075 35.8025486 135.493075 39.0882375 131.885572 39.0882375 131.885572 45.8076421 136.914191 45.8076421 136.914191 49.0637468"></polyline>
                        <polyline id="path628" fill="#FFFFFF" points="144.457067 30.2967739 144.457067 49.0637468 140.958925 49.0637468 140.958925 30.2967739 138.007353 30.2967739 138.007353 27.011085 147.408639 27.011085 147.408639 30.2967739"></polyline>
                        <path d="M149.594962,50.6325779 C149.594962,50.7804993 149.485623,50.8989839 149.376283,50.8989839 L148.829692,50.8989839 L148.829692,50.3661718 L149.376283,50.3661718 C149.485623,50.3661718 149.594962,50.4548825 149.594962,50.6325779 L149.594962,50.6325779 Z M150.032256,50.6030779 C150.032256,50.1886661 149.813577,49.9814707 149.376346,49.9814707 L148.501821,49.9814707 L148.501821,51.9943189 L148.829755,51.9943189 L148.829755,51.2543114 L149.267028,51.2543114 L149.594962,51.9943189 L150.032256,51.9943189 L149.704301,51.1951007 C149.92298,51.10639 150.032256,50.9582789 150.032256,50.6030779 L150.032256,50.6030779 Z M151.016099,51.0175107 C151.016099,49.9814707 150.250871,49.1822525 149.15771,49.1822525 C148.173845,49.1822525 147.408639,49.9814707 147.408639,51.0175107 C147.408639,52.0535296 148.173845,52.8527479 149.15771,52.8527479 C150.250871,52.8527479 151.016099,52.0535296 151.016099,51.0175107 L151.016099,51.0175107 Z M150.688144,51.0175107 C150.688144,51.8759186 150.032256,52.5271521 149.15771,52.5271521 C148.392503,52.5271521 147.736593,51.8759186 147.736593,51.0175107 C147.736593,50.1590818 148.392503,49.5078482 149.15771,49.5078482 C150.032256,49.5078482 150.688144,50.1590818 150.688144,51.0175107 L150.688144,51.0175107 Z" id="path630" fill="#FFFFFF"></path>
                        <path d="M71.2145482,15.9699514 L71.2145482,10.3753818 L70.1213656,10.3753818 L70.1213656,9.54655821 C70.8865934,9.45763679 71.2145482,9.01374607 71.3238664,8.45132857 L72.5263673,8.45132857 L72.5263673,15.9699514" id="path632" fill="#FFFFFF"></path>
                        <path d="M71.2145482,15.9699514 L71.2145482,10.3753818 L70.1213656,10.3753818 L70.1213656,9.54655821 C70.8865934,9.45763679 71.2145482,9.01374607 71.3238664,8.45132857 L72.5263673,8.45132857 L72.5263673,15.9699514 L71.2145482,15.9699514 L71.2145482,15.9699514 Z" id="path634" stroke="#FFFFFF" stroke-width="0.16214901"></path>
                        <path d="M75.1499424,15.9699514 C75.1499424,13.6610918 75.9151912,12.7138679 77.3363076,11.7074332 C77.8828779,11.3226268 77.9922171,11.0266154 77.9922171,10.5529929 C77.9922171,9.96097 77.7735386,9.69456393 77.1176711,9.69456393 C76.6804191,9.69456393 76.3524433,9.96097 76.0245095,10.3457975 L75.1499424,9.3985525 C75.5872365,8.74734 76.3524433,8.33292821 77.2270104,8.33292821 C78.5387874,8.33292821 79.4133335,9.07295679 79.4133335,10.3753818 C79.4133335,11.4114218 78.8667422,12.0626343 78.1015354,12.5954464 C77.1176711,13.335475 76.6804191,13.8682871 76.5711008,14.6675264 L79.4133335,14.6675264 L79.4133335,15.9699514" id="path636" fill="#FFFFFF"></path>
                        <path d="M75.1499424,15.9699514 C75.1499424,13.6610918 75.9151912,12.7138679 77.3363076,11.7074332 C77.8828779,11.3226268 77.9922171,11.0266154 77.9922171,10.5529929 C77.9922171,9.96097 77.7735386,9.69456393 77.1176711,9.69456393 C76.6804191,9.69456393 76.3524433,9.96097 76.0245095,10.3457975 L75.1499424,9.3985525 C75.5872365,8.74734 76.3524433,8.33292821 77.2270104,8.33292821 C78.5387874,8.33292821 79.4133335,9.07295679 79.4133335,10.3753818 C79.4133335,11.4114218 78.8667422,12.0626343 78.1015354,12.5954464 C77.1176711,13.335475 76.6804191,13.8682871 76.5711008,14.6675264 L79.4133335,14.6675264 L79.4133335,15.9699514 L75.1499424,15.9699514 L75.1499424,15.9699514 Z" id="path638" stroke="#FFFFFF" stroke-width="0.16214901"></path>
                        <path d="M83.458088,16.0883518 C82.4742027,16.0883518 81.7089959,15.6443557 81.1624046,14.6971107 L82.2555872,13.9571032 C82.5835209,14.549105 83.020794,14.7563214 83.458088,14.7563214 C84.1139766,14.7563214 84.5512286,14.3419096 84.5512286,13.7498868 C84.5512286,12.9802739 84.0046373,12.6546571 83.3487488,12.6546571 L82.8021785,12.6546571 L82.8021785,11.3522111 L83.3487488,11.3522111 C83.89534,11.3522111 84.3326131,11.085805 84.3326131,10.5529929 C84.3326131,10.0497861 84.0046373,9.66495857 83.458088,9.66495857 C83.020794,9.66495857 82.6928602,9.84259071 82.3649054,10.2273761 L81.3810621,9.3097575 C81.9276114,8.71773464 82.4742027,8.33292821 83.458088,8.33292821 C84.7698861,8.33292821 85.6444112,9.16175179 85.6444112,10.4049871 C85.6444112,11.2338107 85.2071381,11.7074332 84.5512286,11.9442339 C85.2071381,12.1218661 85.8630477,12.6546571 85.8630477,13.7202814 C85.8630477,15.1707332 84.9885226,16.0883518 83.458088,16.0883518" id="path640" fill="#FFFFFF"></path>
                        <path d="M83.458088,16.0883518 C82.4742027,16.0883518 81.7089959,15.6443557 81.1624046,14.6971107 L82.2555872,13.9571032 C82.5835209,14.549105 83.020794,14.7563214 83.458088,14.7563214 C84.1139766,14.7563214 84.5512286,14.3419096 84.5512286,13.7498868 C84.5512286,12.9802739 84.0046373,12.6546571 83.3487488,12.6546571 L82.8021785,12.6546571 L82.8021785,11.3522111 L83.3487488,11.3522111 C83.89534,11.3522111 84.3326131,11.085805 84.3326131,10.5529929 C84.3326131,10.0497861 84.0046373,9.66495857 83.458088,9.66495857 C83.020794,9.66495857 82.6928602,9.84259071 82.3649054,10.2273761 L81.3810621,9.3097575 C81.9276114,8.71773464 82.4742027,8.33292821 83.458088,8.33292821 C84.7698861,8.33292821 85.6444112,9.16175179 85.6444112,10.4049871 C85.6444112,11.2338107 85.2071381,11.7074332 84.5512286,11.9442339 C85.2071381,12.1218661 85.8630477,12.6546571 85.8630477,13.7202814 C85.8630477,15.1707332 84.9885226,16.0883518 83.458088,16.0883518 L83.458088,16.0883518 Z" id="path642" stroke="#FFFFFF" stroke-width="0.16214901"></path>
                    </g>
                </g>
            </g>
        </g>
    </g>
</svg>