<?xml version="1.0" encoding="UTF-8"?>
<svg width="200px" height="140px" viewBox="0 0 200 140" version="1.1" xmlns="http://www.w3.org/2000/svg" xmlns:xlink="http://www.w3.org/1999/xlink">
    <!-- Generator: Sketch 39.1 (31720) - http://www.bohemiancoding.com/sketch -->
    <title>Artboard</title>
    <desc>Created with Sketch.</desc>
    <defs>
        <rect id="path-1" x="0.523877123" y="0.253496871" width="133.347429" height="132.921481"></rect>
        <rect id="path-3" x="0.523877123" y="0.253496871" width="133.347429" height="132.921481"></rect>
        <rect id="path-5" x="0.523877123" y="0.253496871" width="133.347429" height="132.921481"></rect>
        <rect id="path-7" x="0.523877123" y="0.253496871" width="133.347429" height="132.921481"></rect>
        <rect id="path-9" x="0.523877123" y="0.253496871" width="133.347429" height="132.921481"></rect>
        <rect id="path-11" x="0.523877123" y="0.253496871" width="133.347429" height="132.921481"></rect>
        <rect id="path-13" x="0.523877123" y="0.253496871" width="133.347429" height="132.921481"></rect>
        <rect id="path-15" x="0.523877123" y="0.253496871" width="133.347429" height="132.921481"></rect>
    </defs>
    <g id="Page-1" stroke="none" stroke-width="1" fill="none" fill-rule="evenodd">
        <g id="Artboard">
            <g id="Staples_logo" transform="translate(100.497261, 78.447736) rotate(-6.000000) translate(-100.497261, -78.447736) translate(25.997261, 3.947736)">
                <g id="Layer_1" transform="translate(0.000000, -0.000000)">
                    <path d="M132.977563,41.6330714 L13.8939073,41.6330913 L13.9596556,90.5604688 L133.042585,90.5603738 L132.977563,41.6330714 L132.977563,41.6330714 Z M14.4800579,42.2162662 L132.395638,42.2154927 L132.459177,89.9789415 L14.5415034,89.9787663 L14.4800579,42.2162662 L14.4800579,42.2162662 Z" id="path3337" fill="#FFFFFF"></path>
                    <polygon id="polygon3339" fill="#E2231A" transform="translate(73.467849, 66.097057) rotate(5.964000) translate(-73.467849, -66.097057) " points="12.3079197 48.4542984 17.3490562 95.9526406 134.627778 83.7398159 129.584462 36.2414737"></polygon>
                    <g id="g3449" transform="translate(74.159823, 74.203268) rotate(5.964000) translate(-74.159823, -74.203268) translate(6.659823, 6.703268)">
                        <g id="path3457-Clipped" transform="translate(0.049456, 0.003922)">
                            <mask id="mask-2" fill="white">
                                <use xlink:href="#path-1"></use>
                            </mask>
                            <g id="SVGID_21_"></g>
                            <path d="M24.0126091,72.8995981 L24.0067963,72.8995981 C17.0561603,73.6246032 15.8303896,69.2014197 15.6233092,67.2646926 L15.6196762,67.22703 L19.2919022,66.8431611 L19.2969884,66.8829965 C19.4168771,67.7992119 20.0533769,69.8909351 23.3746561,69.542556 C24.4376689,69.4310168 25.2667172,69.1833127 25.8450891,68.8030652 C26.5876722,68.3163484 26.9168211,67.6145202 26.8209102,66.7164119 C26.6697778,65.2968213 25.4120368,65.0143518 23.3579443,64.7195694 L21.3859575,64.4407213 C18.3654898,64.0155684 15.5150461,63.615041 15.0667351,59.3729277 C14.9788168,58.5414533 14.9744572,56.9284797 15.9401059,55.4690536 C16.9689686,53.9132982 18.7941826,52.9854944 21.363433,52.7182347 C23.8200606,52.4596664 25.7738825,53.0137413 27.1776698,54.3623524 C28.6301391,55.7558689 28.9730933,57.5158715 29.0544723,58.208284 L29.0581053,58.2481195 L25.3902388,58.6305398 L25.3822462,58.5964986 C25.2078627,57.8287608 24.7450198,55.7855644 21.4506247,56.1310464 C20.644101,56.2165115 19.9276754,56.4685613 19.427776,56.8408417 C18.8036284,57.30583 18.5275212,57.9345059 18.6103533,58.7080379 C18.7680251,60.2022294 19.9676383,60.3709868 20.6833373,60.4723862 L25.1722594,61.1647987 C27.6921011,61.5479433 30.076069,62.3837635 30.4422744,65.8523448 C30.7060294,68.3257641 29.8995057,70.2219315 28.0481341,71.4879746 C26.5077465,72.5396304 24.7123229,72.8249971 24.0126091,72.8995981" id="path3457" fill="#FFFFFF" mask="url(#mask-2)"></path>
                        </g>
                    </g>
                    <g id="g3459" transform="translate(74.159823, 74.203268) rotate(5.964000) translate(-74.159823, -74.203268) translate(6.659823, 6.703268)">
                        <g id="polygon3467-Clipped" transform="translate(0.049456, 0.003922)">
                            <mask id="mask-4" fill="white">
                                <use xlink:href="#path-3"></use>
                            </mask>
                            <g id="SVGID_23_"></g>
                            <polygon id="polygon3467" fill="#FFFFFF" mask="url(#mask-4)" points="28.7725523 52.4545965 43.428033 50.9234666 43.7942383 54.3905994 38.3781772 54.9548142 40.0457195 70.7122697 36.2223611 71.1120728 36.2187281 71.0722373 34.5540922 55.3553415 29.1387576 55.9202806"></polygon>
                        </g>
                    </g>
                    <g id="g3469" transform="translate(74.159823, 74.203268) rotate(5.964000) translate(-74.159823, -74.203268) translate(6.659823, 6.703268)">
                        <g id="polygon3477-Clipped" transform="translate(0.049456, 0.003922)">
                            <mask id="mask-6" fill="white">
                                <use xlink:href="#path-5"></use>
                            </mask>
                            <g id="SVGID_25_"></g>
                            <polygon id="polygon3477" fill="#FFFFFF" mask="url(#mask-6)" points="85.7356519 46.5039045 98.9502888 45.1255979 99.3164942 48.5898335 89.8096866 49.5813741 90.2274804 53.5272565 98.9619144 52.6153868 99.3281198 56.0825196 90.5922326 56.9951135 91.1095703 61.874594 101.040711 60.8366995 101.411276 64.3016594 101.371313 64.3067293 87.7272569 65.729217 87.7228973 65.6893816 85.6942358 46.5096988"></polygon>
                        </g>
                    </g>
                    <g id="g3479" transform="translate(74.159823, 74.203268) rotate(5.964000) translate(-74.159823, -74.203268) translate(6.659823, 6.703268)">
                        <g id="path3487-Clipped" transform="translate(0.049456, 0.003922)">
                            <mask id="mask-8" fill="white">
                                <use xlink:href="#path-7"></use>
                            </mask>
                            <g id="SVGID_27_"></g>
                            <path d="M110.271412,63.8880949 L110.271412,63.8880949 L110.269958,63.8880949 C107.378825,64.1893958 105.170694,63.6302509 103.709505,62.2236974 C102.350767,60.9170946 101.985288,59.1759233 101.887198,58.2553623 L101.884291,58.2148026 L105.553611,57.8294851 L105.561604,57.8685963 C105.678586,58.7840874 106.316539,60.8765349 109.635638,60.5310529 C110.698651,60.4202379 111.526973,60.170361 112.108251,59.7915621 C112.850108,59.3048453 113.17635,58.6022929 113.083346,57.7041845 C112.931487,56.2860425 111.675199,56.0021244 109.619653,55.7066178 L107.650573,55.4263211 C104.627925,55.003341 101.777481,54.6006408 101.330624,50.3585275 C101.182398,48.9671839 101.204922,44.3766915 107.625868,43.7038345 C110.080316,43.4474391 112.034865,44.0000654 113.439379,45.3479522 C114.890395,46.7436415 115.235529,48.5021955 115.315454,49.1946081 L115.321267,49.2344435 L111.651948,49.6175881 L111.643955,49.5835469 C111.472478,48.8158092 111.013268,46.7726127 107.71088,47.1195433 C106.224261,47.2738151 104.698405,48.0335858 104.872062,49.6936376 C105.029734,51.190002 106.229347,51.3580352 106.945773,51.4587102 L111.434695,52.1496742 C113.955263,52.5349917 116.340684,53.3693633 116.70689,56.8408417 C116.967012,59.3135367 116.161215,61.2097041 114.307663,62.4750229 C112.765822,63.5288516 110.973305,63.8142183 110.271412,63.8880949" id="path3487" fill="#FFFFFF" mask="url(#mask-8)"></path>
                        </g>
                    </g>
                    <g id="g3489" transform="translate(74.159823, 74.203268) rotate(5.964000) translate(-74.159823, -74.203268) translate(6.659823, 6.703268)">
                        <g id="path3497-Clipped" transform="translate(0.049456, 0.003922)">
                            <mask id="mask-10" fill="white">
                                <use xlink:href="#path-9"></use>
                            </mask>
                            <g id="SVGID_29_"></g>
                            <path d="M74.1987296,65.0281131 L72.7099304,50.9133267 C72.5013968,48.957044 73.9843832,47.1992142 76.0166777,46.9855513 C78.0504254,46.7762341 79.7666497,48.0799398 80.1277689,50.0789551 L81.7691537,55.9224535 L78.5452386,57.0574017 L76.5303824,50.4903466 L76.3792501,50.5200422 L77.7299957,63.2391393 L86.537816,62.3164054 L86.9105608,65.858139 L76.7316501,66.9250048 C76.7229309,66.9250048 76.534742,66.9445604 76.3559989,66.9633917 C75.2711882,67.0756552 74.3098991,66.0681805 74.1987296,65.0281131" id="path3497" fill="#FFFFFF" mask="url(#mask-10)"></path>
                        </g>
                    </g>
                    <g id="g3499" transform="translate(74.159823, 74.203268) rotate(5.964000) translate(-74.159823, -74.203268) translate(6.659823, 6.703268)">
                        <g id="path3507-Clipped" transform="translate(0.049456, 0.003922)">
                            <mask id="mask-12" fill="white">
                                <use xlink:href="#path-11"></use>
                            </mask>
                            <g id="SVGID_31_"></g>
                            <path d="M54.77386,69.1746213 L54.7622344,69.1456501 L53.208768,65.3467967 L46.6526747,66.0319664 L45.8236264,70.1074951 L41.7946408,70.5275781 L41.8084461,70.473257 L46.1782062,50.6366514 L50.5545057,50.1796301 L50.5661312,50.2071528 L58.9285471,68.7393285 L54.77386,69.1746213 L54.77386,69.1746213 Z M47.318965,62.5394839 L51.7788232,62.0723227 L48.7946854,54.8258922 L47.318965,62.5394839 L47.318965,62.5394839 Z" id="path3507" fill="#FFFFFF" mask="url(#mask-12)"></path>
                        </g>
                    </g>
                    <g id="g3509" transform="translate(74.159823, 74.203268) rotate(5.964000) translate(-74.159823, -74.203268) translate(6.659823, 6.703268)">
                        <g id="path3517-Clipped" transform="translate(0.049456, 0.003922)">
                            <mask id="mask-14" fill="white">
                                <use xlink:href="#path-13"></use>
                            </mask>
                            <g id="SVGID_33_"></g>
                            <path d="M63.5816803,68.2526117 L59.7575953,68.6524148 L59.7532357,68.6125793 L57.7238477,49.4299994 L65.9503897,48.5702779 C69.4082693,48.2088618 71.8060426,50.3483876 72.2071246,54.1559323 C72.3117547,55.1474729 72.1933193,56.6742571 71.5459205,57.9895512 C70.6994339,59.7024756 69.2048219,60.6838762 67.102774,60.9040576 L62.8499962,61.3465932 L63.5816803,68.2526117 L63.5816803,68.2526117 Z M62.49251,57.9620285 L65.9220523,57.604958 C68.6765852,57.3152457 68.4578792,55.2524936 68.3670545,54.371768 C68.1701464,52.5226789 67.1470965,51.8679289 64.8357884,52.1091145 L61.9054189,52.4162096 L62.49251,57.9620285 L62.49251,57.9620285 Z" id="path3517" fill="#FFFFFF" mask="url(#mask-14)"></path>
                        </g>
                    </g>
                    <g id="g3519" transform="translate(74.159823, 74.203268) rotate(5.964000) translate(-74.159823, -74.203268) translate(6.659823, 6.703268)">
                        <g id="path3527-Clipped" transform="translate(0.049456, 0.003922)">
                            <mask id="mask-16" fill="white">
                                <use xlink:href="#path-15"></use>
                            </mask>
                            <g id="SVGID_35_"></g>
                            <path d="M115.029175,43.1497596 C115.712904,43.0802286 116.345044,43.5575298 116.41843,44.2629794 C116.49327,44.981466 115.978112,45.5797221 115.29293,45.6521502 C114.605568,45.7231297 113.971975,45.2451043 113.894955,44.5266176 C113.820116,43.8218923 114.341087,43.2221877 115.029175,43.1497596 L115.029175,43.1497596 Z M115.273312,45.4674585 C115.853137,45.4058946 116.253492,44.8974494 116.188099,44.2868806 C116.124158,43.6893489 115.627892,43.2750602 115.04734,43.3358998 C114.460249,43.398188 114.061346,43.903736 114.12456,44.5027163 C114.186321,45.1132852 114.686221,45.5297467 115.273312,45.4674585 L115.273312,45.4674585 Z M114.595396,43.720493 L115.162142,43.6618262 C115.510183,43.6248879 115.688199,43.7436699 115.718716,44.0246909 C115.747054,44.2883292 115.590109,44.4172512 115.374309,44.4628809 L115.864036,45.0640341 L115.616266,45.0893839 L115.151243,44.5041649 L114.909286,44.5273419 L114.97686,45.156742 L114.748708,45.179919 L114.595396,43.720493 L114.595396,43.720493 Z M114.890395,44.3455474 L115.128719,44.3209218 C115.327807,44.2970206 115.513089,44.2702222 115.488385,44.0399008 C115.467313,43.844345 115.298016,43.8320322 115.141071,43.849415 L114.839533,43.880559 L114.890395,44.3455474 L114.890395,44.3455474 Z" id="path3527" fill="#FFFFFF" mask="url(#mask-16)"></path>
                        </g>
                    </g>
                </g>
            </g>
        </g>
    </g>
</svg>