<?xml version="1.0" encoding="UTF-8"?>
<svg width="200px" height="140px" viewBox="0 0 200 140" version="1.1" xmlns="http://www.w3.org/2000/svg" xmlns:xlink="http://www.w3.org/1999/xlink">
    <!-- Generator: Sketch 39.1 (31720) - http://www.bohemiancoding.com/sketch -->
    <title>Artboard</title>
    <desc>Created with Sketch.</desc>
    <defs></defs>
    <g id="Page-1" stroke="none" stroke-width="1" fill="none" fill-rule="evenodd">
        <g id="Artboard">
            <g id="Symantec_logo10" transform="translate(17.000000, 47.000000)">
                <g id="svg2">
                    <path d="M42.8079083,0.5 L42.8079083,1.88461538 L44.1925237,1.88461538 L44.1925237,0.5 L42.8079083,0.5 L42.8079083,0.5 Z M42.8079083,3.26923077 L42.8079083,4.65384615 L44.1925237,4.65384615 L44.1925237,3.26923077 L42.8079083,3.26923077 L42.8079083,3.26923077 Z M38.6540622,4.65384615 L38.6540622,6.03846154 L40.0386775,6.03846154 L40.0386775,4.65384615 L38.6540622,4.65384615 L38.6540622,4.65384615 Z" id="rect3886" fill="#FDB511"></path>
                    <path d="M20.5386775,5.69230769 C9.54434991,5.69230769 0.634831754,14.6018277 0.634831754,25.5961538 C0.634831754,36.59048 9.54434991,45.5 20.5386775,45.5 C31.5330055,45.5 40.4425237,36.59048 40.4425237,25.5961538 C40.4425237,14.6018277 31.5330055,5.69230769 20.5386775,5.69230769 L20.5386775,5.69230769 Z M20.5386775,12.0384615 C28.0193538,12.0384615 34.0963698,18.1154831 34.0963698,25.5961538 C34.0963698,33.0768246 28.0193538,39.1538462 20.5386775,39.1538462 C13.0580016,39.1538462 7.03867791,33.0768246 7.03867791,25.5961538 C7.03867791,18.1154831 13.0580016,12.0384615 20.5386775,12.0384615 L20.5386775,12.0384615 Z" id="path3095" fill="#FDB511"></path>
                    <g id="text58" transform="translate(44.307692, 15.615385)" fill="#000000">
                        <path d="M7.68482954,20.5131194 C4.82328738,20.5131194 2.42328923,19.8023502 0.484829538,18.3808117 L2.34021415,15.3346578 C3.89097969,16.4238923 5.644824,16.9685077 7.60175262,16.968504 C8.56174523,16.9685077 9.31866646,16.7838886 9.87252185,16.4146578 C10.4263588,16.0269692 10.70328,15.4915865 10.7032911,14.808504 C10.70328,14.6238886 10.6848111,14.4577403 10.6479065,14.3100425 C10.6109649,14.1623502 10.5463495,14.023896 10.4540603,13.8946578 C10.3617526,13.7469655 10.2694357,13.6269729 10.1771372,13.5346578 C10.0848111,13.4238886 9.937128,13.3131268 9.73406031,13.2023502 C9.54943569,13.0915809 9.38328185,12.9992806 9.23559877,12.9254271 C9.106368,12.8515809 8.89405108,12.7592732 8.59867569,12.648504 C8.30328369,12.5377348 8.05405292,12.4546652 7.85098338,12.3992732 C7.66636062,12.3254271 7.38020677,12.2238886 6.99252185,12.0946578 C6.604824,11.9654455 6.28174708,11.8546671 6.02329108,11.7623502 C5.34020862,11.5223594 4.758672,11.2731286 4.27867569,11.0146578 C3.798672,10.737744 3.30944123,10.3869766 2.81098338,9.96235015 C2.31252,9.51928431 1.93405846,8.96543815 1.67559877,8.30081169 C1.41713538,7.61774769 1.28790462,6.84236308 1.28790646,5.97465785 C1.28790462,4.22082831 1.89713538,2.86390708 3.11559877,1.90388862 C4.33405662,0.925447385 5.94020862,0.436216615 7.93406031,0.436196308 C10.3340511,0.436216615 12.2817415,0.879293538 13.7771372,1.76542708 L12.3648295,4.95004246 C10.9617415,4.28544369 9.53097415,3.953136 8.07252185,3.95311938 C6.15251631,3.953136 5.19251631,4.58082831 5.19252185,5.83619631 C5.19251631,6.13159569 5.24790646,6.39005723 5.35867569,6.61158092 C5.46944492,6.83313231 5.58943938,7.01774769 5.71867569,7.16542708 C5.84790646,7.31313785 6.07867015,7.46082462 6.41098338,7.608504 C6.76174523,7.75621477 7.04789908,7.86697846 7.26944492,7.94081169 C7.50943754,8.01467631 7.89712985,8.13467077 8.43252185,8.30081169 C8.67251262,8.37467631 8.857128,8.43006092 8.986368,8.46696554 C9.63251262,8.67005354 10.1863588,8.86389969 10.6479065,9.048504 C11.1094338,9.23313046 11.6171262,9.50082277 12.1709834,9.85158092 C12.7248166,10.1838997 13.1771243,10.5623594 13.5279065,10.9869655 C13.8786628,11.4115902 14.1740455,11.9469748 14.4140603,12.5931194 C14.6540455,13.2392806 14.7740455,13.9592806 14.7740603,14.7531194 C14.7740455,16.4885077 14.155584,17.882352 12.9186757,18.9346578 C11.7002031,19.9869655 9.95558954,20.5131194 7.68482954,20.5131194" id="path2820"></path>
                        <path d="M21.6084351,20.9008117 L16.3745889,5.91927323 L20.7222812,5.91927323 L23.4084351,16.3869655 L25.6792043,5.91927323 L29.7499735,5.91927323 L25.4576658,20.4300425 C24.4607354,23.7900388 22.3838142,25.4700369 19.2268966,25.4700425 C18.4884332,25.4700369 17.7038197,25.3869655 16.8730505,25.2208117 L17.3161274,22.2854271 C18.0545871,22.3592732 18.5253563,22.3961963 18.7284351,22.3961963 C19.4853563,22.3961945 20.0761237,22.2761963 20.5007428,22.0361963 C20.9253545,21.814656 21.2945852,21.4361963 21.6084351,20.9008117" id="path2822"></path>
                        <path d="M43.4801668,7.80235015 C44.8647674,6.32544185 46.3416886,5.58698031 47.910936,5.58696554 C49.3693791,5.58698031 50.3939926,6.08544185 50.9847822,7.08235015 C51.5939908,8.07928615 51.8986062,9.32543815 51.8986283,10.8208117 L51.8986283,20.2361963 L47.6893975,20.2361963 L47.6893975,10.7654271 C47.6893791,9.62082277 47.246304,9.04851508 46.3601668,9.048504 C45.6586135,9.04851508 44.8739982,9.43620738 44.0063206,10.2115809 L44.0063206,20.2361963 L39.7970898,20.2361963 L39.7970898,10.7654271 C39.7970806,9.62082277 39.3540037,9.04851508 38.4678591,9.048504 C37.655544,9.04851508 36.8709286,9.45466892 36.1140129,10.2669655 L36.1140129,20.2361963 L31.9047822,20.2361963 L31.9047822,5.91927323 L34.5078591,5.91927323 L35.3386283,8.10696554 C36.7970825,6.42698031 38.3570825,5.58698031 40.0186283,5.58696554 C41.6801557,5.58698031 42.834,6.32544185 43.4801668,7.80235015" id="path2824"></path>
                        <path d="M62.4134843,11.0700425 L62.4134843,10.7100425 C62.4134751,10.0638997 62.265792,9.59313046 61.9704074,9.29773477 C61.6934751,9.00236123 61.2042462,8.85466892 60.5027151,8.85465785 C59.4134788,8.85466892 58.0750172,9.22389969 56.4873305,9.96235015 L55.0473305,7.19311938 C56.8934806,6.12236492 58.8319403,5.58698031 60.8627151,5.58696554 C62.7642443,5.58698031 64.1950117,6.05774954 65.1550228,6.99927323 C66.1334714,7.92236308 66.6227022,9.24236123 66.6227151,10.9592732 L66.6227151,20.2361963 L64.0196382,20.2361963 C63.5396271,19.2208135 63.2903982,18.7131212 63.2719458,18.7131194 C61.9611674,19.9131194 60.5580923,20.5131194 59.0627151,20.5131194 C57.7888652,20.5131194 56.718096,20.1438886 55.8504074,19.4054271 C55.0011748,18.6485058 54.5765594,17.6238923 54.5765612,16.3315809 C54.5765594,14.8177403 55.0657902,13.7100498 56.0442535,13.008504 C57.1888652,12.1592825 59.3119403,11.5131286 62.4134843,11.0700425 M62.4134843,16.6915809 L62.4134843,13.6731194 C60.5857846,14.0423575 59.4780942,14.4485095 59.0904074,14.8915809 C58.8319403,15.1685095 58.7027095,15.5469711 58.7027151,16.0269655 C58.7027095,17.0423538 59.1919403,17.5500462 60.1704074,17.5500425 C60.9827077,17.5500462 61.7303982,17.2638923 62.4134843,16.6915809" id="path2826"></path>
                        <path d="M69.9817052,20.2361963 L69.9817052,5.91927323 L72.5847822,5.91927323 L73.4155514,8.10696554 C74.8740055,6.42698031 76.4709268,5.58698031 78.2063206,5.58696554 C80.9386154,5.58698031 82.3047674,7.33159385 82.3047822,10.8208117 L82.3047822,20.2361963 L78.0955514,20.2361963 L78.0955514,10.7654271 C78.0955422,9.62082277 77.6155422,9.04851508 76.6555514,9.048504 C75.7693902,9.04851508 74.9478517,9.45466892 74.190936,10.2669655 L74.190936,20.2361963 L69.9817052,20.2361963" id="path2828"></path>
                        <path d="M86.6624271,8.79927323 L84.5578117,8.79927323 L84.5578117,5.91927323 L86.7178117,5.91927323 L87.4378117,1.848504 L90.8716578,1.848504 L90.8716578,5.91927323 L93.9178117,5.91927323 L93.9178117,8.79927323 L90.8716578,8.79927323 L90.8716578,15.6946578 C90.8716505,16.3223538 90.9731963,16.7562 91.1762732,16.9961963 C91.3793428,17.2362 91.7947255,17.3562 92.4224271,17.3561963 C92.7731871,17.3562 93.2624178,17.2638886 93.8901194,17.0792732 L94.3885809,19.9869655 C93.3362622,20.3377348 92.2654948,20.5131194 91.1762732,20.5131194 C88.1670369,20.5131194 86.6624234,18.9808135 86.6624271,15.9161963 L86.6624271,8.79927323" id="path2830"></path>
                        <path d="M100.462715,14.3100425 C100.555023,15.2885095 100.82271,16.0085077 101.265792,16.4700425 C101.727323,16.9315846 102.4104,17.1623538 103.315023,17.1623502 C103.813475,17.1623538 104.311937,17.088504 104.810407,16.9408117 C105.327319,16.7931194 105.705781,16.6546615 105.945792,16.5254271 C106.204242,16.3961963 106.582704,16.1931231 107.081177,15.9161963 L108.742715,18.5746578 C108.170394,18.9992751 107.681164,19.3315828 107.275023,19.5715809 C106.868856,19.7931194 106.287319,20.0054271 105.530407,20.208504 C104.773475,20.4115809 103.933475,20.5131194 103.010407,20.5131194 C100.905786,20.5131194 99.2257883,19.8669655 97.9704074,18.5746578 C96.7334825,17.2638923 96.1150209,15.4823557 96.1150228,13.2300425 C96.1150209,10.977744 96.7057902,9.14082277 97.8873305,7.71927323 C99.0688652,6.29774954 100.693479,5.58698031 102.761177,5.58696554 C104.884244,5.58698031 106.471935,6.29774954 107.524254,7.71927323 C108.576548,9.14082277 109.1027,10.9685132 109.102715,13.2023502 L109.102715,14.3100425 L100.462715,14.3100425 M100.462715,11.8454271 L104.810407,11.8454271 C104.810398,9.68543815 104.11809,8.60543815 102.733484,8.60542708 C102.068862,8.60543815 101.551938,8.86389969 101.182715,9.38081169 C100.813479,9.87928431 100.573479,10.7008209 100.462715,11.8454271" id="path2832"></path>
                        <path d="M118.100551,20.5131194 C115.811315,20.5131194 114.085163,19.8392732 112.92209,18.4915809 C111.777473,17.1254308 111.205165,15.3438942 111.205167,13.1469655 C111.205165,10.9500517 111.805165,9.14082277 113.005167,7.71927323 C114.205163,6.29774954 115.903623,5.58698031 118.100551,5.58696554 C120.039004,5.58698031 121.617463,6.12236492 122.835936,7.19311938 L120.869782,9.99004246 C120.37131,9.62082277 119.937465,9.371592 119.568244,9.24235015 C119.199004,9.09467631 118.719004,9.02082277 118.128244,9.02081169 C116.411315,9.02082277 115.552854,10.3777458 115.552859,13.0915809 C115.552854,15.750048 116.429777,17.0792769 118.183628,17.0792732 C119.125158,17.0792769 120.075927,16.7008154 121.035936,15.9438886 L123.057474,18.5469655 C121.746694,19.8577348 120.094388,20.5131194 118.100551,20.5131194" id="path2834"></path>
                    </g>
                    <path d="M26.1925237,15.7307692 C22.578456,20.2477354 21.6676597,22.2311138 20.2278535,25.8831754 C18.594264,22.5790585 16.6446757,20.2987631 13.2694471,18.7884615 C12.6300576,18.6252615 12.315641,18.5305908 11.8848318,19.1346154 C11.4540225,19.73864 11.7152441,20.2820923 12.2309856,20.9230769 C13.5824902,22.6027631 15.1012726,24.1546769 16.1540622,26.0576923 C17.3882935,28.2886769 18.9249655,31.9656615 19.4425237,32.9230769 C19.8541514,33.6845415 20.849664,34.0192308 21.2309852,34.0192308 C23.2735938,33.7775138 23.2743046,32.7390892 23.6636677,30.9390154 C24.2950634,27.9871631 25.1128191,24.9354523 28.9617545,21.2692308 L28.9617545,15.7307692 L26.1925237,15.7307692 L26.1925237,15.7307692 Z" id="path3876" fill="#000000"></path>
                    <path d="M41.4232929,1.88461538 L41.4232929,3.26923077 L42.8079083,3.26923077 L42.8079083,1.88461538 L41.4232929,1.88461538 L41.4232929,1.88461538 Z M41.4232929,3.26923077 L38.6540622,3.26923077 L38.6540622,4.65384615 L41.4232929,4.65384615 L41.4232929,3.26923077 L41.4232929,3.26923077 Z M38.6540622,4.65384615 L37.2694468,4.65384615 L37.2694468,7.42307692 L38.6540622,7.42307692 L38.6540622,4.65384615 L38.6540622,4.65384615 Z M38.6540622,7.42307692 L38.6540622,8.80769231 L40.0386775,8.80769231 L40.0386775,7.42307692 L38.6540622,7.42307692 L38.6540622,7.42307692 Z M40.0386775,7.42307692 L41.4232929,7.42307692 L41.4232929,6.03846154 L40.0386775,6.03846154 L40.0386775,7.42307692 L40.0386775,7.42307692 Z M38.6540622,8.80769231 L37.2694468,8.80769231 L37.2694468,10.1923077 L35.8848314,10.1923077 L35.8848314,8.80769231 L33.1156006,8.80769231 L33.1156006,10.1923077 L31.7309852,10.1923077 L31.7309852,11.5769231 L33.1156006,11.5769231 L33.1156006,12.9615385 L31.7309852,12.9615385 L31.7309852,11.5769231 L30.3463698,11.5769231 L30.3463698,12.9615385 L28.9617545,12.9615385 L28.9617545,14.3461538 L27.5771391,14.3461538 L27.5771391,19.8846154 L30.3463698,19.8846154 L30.3463698,18.5 L31.7309852,18.5 L31.7309852,17.1153846 L33.1156006,17.1153846 L33.1156006,15.7307692 L31.7309852,15.7307692 L31.7309852,14.3461538 L33.1156006,14.3461538 L33.1156006,15.7307692 L34.500216,15.7307692 L34.500216,14.3461538 L35.8848314,14.3461538 L35.8848314,12.9615385 L37.2694468,12.9615385 L37.2694468,11.5769231 L38.6540622,11.5769231 L38.6540622,8.80769231 L38.6540622,8.80769231 Z M35.8848314,8.80769231 L37.2694468,8.80769231 L37.2694468,7.42307692 L35.8848314,7.42307692 L35.8848314,8.80769231 L35.8848314,8.80769231 Z M35.8848314,7.42307692 L35.8848314,6.03846154 L34.500216,6.03846154 L34.500216,7.42307692 L35.8848314,7.42307692 L35.8848314,7.42307692 Z" id="rect3951" fill="#000000"></path>
                </g>
            </g>
        </g>
    </g>
</svg>